<svg width="161" height="81" viewBox="0 0 161 81" fill="none" xmlns="http://www.w3.org/2000/svg">
<g clip-path="url(#clip0)">
<g filter="url(#filter0_dd)">
<path d="M94.5 24.75H66.5C65.3954 24.75 64.5 25.6454 64.5 26.75V54.75C64.5 55.8546 65.3954 56.75 66.5 56.75H94.5C95.6046 56.75 96.5 55.8546 96.5 54.75V26.75C96.5 25.6454 95.6046 24.75 94.5 24.75Z" fill="black"/>
</g>
<path d="M86.3818 32.6818L86.3833 32.6826C87.708 33.3891 88.715 34.3863 89.4096 35.6779L86.3653 37.4537C85.8144 36.6341 85.1314 36.0103 84.3152 35.5897C83.4609 35.1131 82.5199 34.876 81.497 34.876C79.7568 34.876 78.2997 35.4502 77.1452 36.6043C75.9851 37.7396 75.415 39.2604 75.415 41.138C75.415 43.0147 75.9724 44.5458 77.1063 45.7048L77.1062 45.7049L77.1102 45.7087C78.2659 46.8393 79.735 47.4 81.497 47.4C82.519 47.4 83.4596 47.1753 84.314 46.7229L84.314 46.723L84.3163 46.7217C85.1315 46.2791 85.8144 45.6439 86.3654 44.8223L89.4069 46.5965C88.6904 47.8908 87.6714 48.901 86.3452 49.6306C84.9714 50.3755 83.3699 50.752 81.533 50.752C79.5772 50.752 77.8302 50.34 76.2861 49.5211C74.7413 48.7019 73.5398 47.5696 72.6761 46.1226C71.8128 44.6523 71.379 42.9929 71.379 41.138C71.379 39.2827 71.8129 37.6358 72.6757 36.1901C73.5399 34.742 74.73 33.6095 76.2508 32.7905C77.7943 31.9721 79.553 31.56 81.533 31.56C83.3947 31.56 85.0084 31.9368 86.3818 32.6818Z" stroke="white" stroke-width="0.5"/>
<path d="M86.75 41C86.75 43.7614 84.5114 46 81.75 46C78.9886 46 76.75 43.7614 76.75 41C76.75 38.2386 78.9886 36 81.75 36C84.5114 36 86.75 38.2386 86.75 41Z" stroke="white" stroke-width="0.5"/>
</g>
<defs>
<filter id="filter0_dd" x="44.5" y="12.75" width="72" height="72" filterUnits="userSpaceOnUse" color-interpolation-filters="sRGB">
<feFlood flood-opacity="0" result="BackgroundImageFix"/>
<feColorMatrix in="SourceAlpha" type="matrix" values="0 0 0 0 0 0 0 0 0 0 0 0 0 0 0 0 0 0 127 0"/>
<feOffset dy="8"/>
<feGaussianBlur stdDeviation="10"/>
<feColorMatrix type="matrix" values="0 0 0 0 0 0 0 0 0 0 0 0 0 0 0 0 0 0 0.3 0"/>
<feBlend mode="normal" in2="BackgroundImageFix" result="effect1_dropShadow"/>
<feColorMatrix in="SourceAlpha" type="matrix" values="0 0 0 0 0 0 0 0 0 0 0 0 0 0 0 0 0 0 127 0"/>
<feOffset dy="5"/>
<feGaussianBlur stdDeviation="8"/>
<feColorMatrix type="matrix" values="0 0 0 0 0 0 0 0 0 0 0 0 0 0 0 0 0 0 0.05 0"/>
<feBlend mode="normal" in2="effect1_dropShadow" result="effect2_dropShadow"/>
<feBlend mode="normal" in="SourceGraphic" in2="effect2_dropShadow" result="shape"/>
</filter>
<clipPath id="clip0">
<rect width="160" height="80" fill="white" transform="translate(0.5 0.75)"/>
</clipPath>
</defs>
</svg>
