<svg width="1280" height="721" viewBox="0 0 1280 721" fill="none" xmlns="http://www.w3.org/2000/svg">
<rect width="1280" height="720" transform="matrix(1 0 0 -1 0 720.444)" fill="white"/>
<path d="M243.9 545.609C239.964 545.609 236.196 545.057 232.596 543.953C228.996 542.801 226.14 541.337 224.028 539.561L227.268 532.289C229.284 533.873 231.78 535.193 234.756 536.249C237.732 537.305 240.78 537.833 243.9 537.833C246.54 537.833 248.676 537.545 250.308 536.969C251.94 536.393 253.14 535.625 253.908 534.665C254.676 533.657 255.06 532.529 255.06 531.281C255.06 529.745 254.508 528.521 253.404 527.609C252.3 526.649 250.86 525.905 249.084 525.377C247.356 524.801 245.412 524.273 243.252 523.793C241.14 523.313 239.004 522.761 236.844 522.137C234.732 521.465 232.788 520.625 231.012 519.617C229.284 518.561 227.868 517.169 226.764 515.441C225.66 513.713 225.108 511.505 225.108 508.817C225.108 506.081 225.828 503.585 227.268 501.329C228.756 499.025 230.988 497.201 233.964 495.857C236.988 494.465 240.804 493.769 245.412 493.769C248.436 493.769 251.436 494.153 254.412 494.921C257.388 495.689 259.98 496.793 262.188 498.233L259.236 505.505C256.98 504.161 254.652 503.177 252.252 502.553C249.852 501.881 247.548 501.545 245.34 501.545C242.748 501.545 240.636 501.857 239.004 502.481C237.42 503.105 236.244 503.921 235.476 504.929C234.756 505.937 234.396 507.089 234.396 508.385C234.396 509.921 234.924 511.169 235.98 512.129C237.084 513.041 238.5 513.761 240.228 514.289C242.004 514.817 243.972 515.345 246.132 515.873C248.292 516.353 250.428 516.905 252.54 517.529C254.7 518.153 256.644 518.969 258.372 519.977C260.148 520.985 261.564 522.353 262.62 524.081C263.724 525.809 264.276 527.993 264.276 530.633C264.276 533.321 263.532 535.817 262.044 538.121C260.604 540.377 258.372 542.201 255.348 543.593C252.324 544.937 248.508 545.609 243.9 545.609ZM291.629 506.009C294.701 506.009 297.437 506.609 299.837 507.809C302.285 509.009 304.205 510.857 305.597 513.353C306.989 515.801 307.685 518.969 307.685 522.857V544.889H298.685V524.009C298.685 520.601 297.869 518.057 296.237 516.377C294.653 514.697 292.421 513.857 289.541 513.857C287.429 513.857 285.557 514.289 283.925 515.153C282.293 516.017 281.021 517.313 280.109 519.041C279.245 520.721 278.813 522.857 278.813 525.449V544.889H269.813V491.465H278.813V516.809L276.869 513.641C278.213 511.193 280.157 509.321 282.701 508.025C285.293 506.681 288.269 506.009 291.629 506.009ZM333.573 545.393C329.637 545.393 326.133 544.553 323.061 542.873C319.989 541.145 317.565 538.793 315.789 535.817C314.013 532.841 313.125 529.457 313.125 525.665C313.125 521.825 314.013 518.441 315.789 515.513C317.565 512.537 319.989 510.209 323.061 508.529C326.133 506.849 329.637 506.009 333.573 506.009C337.557 506.009 341.085 506.849 344.157 508.529C347.277 510.209 349.701 512.513 351.429 515.441C353.205 518.369 354.093 521.777 354.093 525.665C354.093 529.457 353.205 532.841 351.429 535.817C349.701 538.793 347.277 541.145 344.157 542.873C341.085 544.553 337.557 545.393 333.573 545.393ZM333.573 537.689C335.781 537.689 337.749 537.209 339.477 536.249C341.205 535.289 342.549 533.897 343.509 532.073C344.517 530.249 345.021 528.113 345.021 525.665C345.021 523.169 344.517 521.033 343.509 519.257C342.549 517.433 341.205 516.041 339.477 515.081C337.749 514.121 335.805 513.641 333.645 513.641C331.437 513.641 329.469 514.121 327.741 515.081C326.061 516.041 324.717 517.433 323.709 519.257C322.701 521.033 322.197 523.169 322.197 525.665C322.197 528.113 322.701 530.249 323.709 532.073C324.717 533.897 326.061 535.289 327.741 536.249C329.469 537.209 331.413 537.689 333.573 537.689ZM367.26 544.889L353.148 506.441H361.644L373.74 540.353H369.708L382.38 506.441H389.94L402.252 540.353H398.292L410.748 506.441H418.74L404.556 544.889H395.916L384.684 514.865H387.348L375.9 544.889H367.26ZM462.755 544.889V537.113L462.251 535.457V521.849C462.251 519.209 461.459 517.169 459.875 515.729C458.291 514.241 455.891 513.497 452.675 513.497C450.515 513.497 448.379 513.833 446.267 514.505C444.203 515.177 442.451 516.113 441.011 517.313L437.483 510.761C439.547 509.177 441.995 508.001 444.827 507.233C447.707 506.417 450.683 506.009 453.755 506.009C459.323 506.009 463.619 507.353 466.643 510.041C469.715 512.681 471.251 516.785 471.251 522.353V544.889H462.755ZM450.659 545.393C447.779 545.393 445.259 544.913 443.099 543.953C440.939 542.945 439.259 541.577 438.059 539.849C436.907 538.073 436.331 536.081 436.331 533.873C436.331 531.713 436.835 529.769 437.843 528.041C438.899 526.313 440.603 524.945 442.955 523.937C445.307 522.929 448.427 522.425 452.315 522.425H463.475V528.401H452.963C449.891 528.401 447.827 528.905 446.771 529.913C445.715 530.873 445.187 532.073 445.187 533.513C445.187 535.145 445.835 536.441 447.131 537.401C448.427 538.361 450.227 538.841 452.531 538.841C454.739 538.841 456.707 538.337 458.435 537.329C460.211 536.321 461.483 534.833 462.251 532.865L463.763 538.265C462.899 540.521 461.339 542.273 459.083 543.521C456.875 544.769 454.067 545.393 450.659 545.393ZM508.82 545.393C505.604 545.393 502.508 544.985 499.532 544.169C496.604 543.305 494.276 542.273 492.548 541.073L496.004 534.233C497.732 535.337 499.796 536.249 502.196 536.969C504.596 537.689 506.996 538.049 509.396 538.049C512.228 538.049 514.268 537.665 515.516 536.897C516.812 536.129 517.46 535.097 517.46 533.801C517.46 532.745 517.028 531.953 516.164 531.425C515.3 530.849 514.172 530.417 512.78 530.129C511.388 529.841 509.828 529.577 508.1 529.337C506.42 529.097 504.716 528.785 502.988 528.401C501.308 527.969 499.772 527.369 498.38 526.601C496.988 525.785 495.86 524.705 494.996 523.361C494.132 522.017 493.7 520.241 493.7 518.033C493.7 515.585 494.396 513.473 495.788 511.697C497.18 509.873 499.124 508.481 501.62 507.521C504.164 506.513 507.164 506.009 510.62 506.009C513.212 506.009 515.828 506.297 518.468 506.873C521.108 507.449 523.292 508.265 525.02 509.321L521.564 516.161C519.74 515.057 517.892 514.313 516.02 513.929C514.196 513.497 512.372 513.281 510.548 513.281C507.812 513.281 505.772 513.689 504.428 514.505C503.132 515.321 502.484 516.353 502.484 517.601C502.484 518.753 502.916 519.617 503.78 520.193C504.644 520.769 505.772 521.225 507.164 521.561C508.556 521.897 510.092 522.185 511.772 522.425C513.5 522.617 515.204 522.929 516.884 523.361C518.564 523.793 520.1 524.393 521.492 525.161C522.932 525.881 524.084 526.913 524.948 528.257C525.812 529.601 526.244 531.353 526.244 533.513C526.244 535.913 525.524 538.001 524.084 539.777C522.692 541.553 520.7 542.945 518.108 543.953C515.516 544.913 512.42 545.393 508.82 545.393ZM545.586 545.393C541.362 545.393 538.098 544.313 535.794 542.153C533.49 539.945 532.338 536.705 532.338 532.433V497.945H541.338V532.217C541.338 534.041 541.794 535.457 542.706 536.465C543.666 537.473 544.986 537.977 546.666 537.977C548.682 537.977 550.362 537.449 551.706 536.393L554.226 542.801C553.17 543.665 551.874 544.313 550.338 544.745C548.802 545.177 547.218 545.393 545.586 545.393ZM526.002 513.929V506.729H551.634V513.929H526.002ZM582.438 544.889V537.113L581.934 535.457V521.849C581.934 519.209 581.142 517.169 579.558 515.729C577.974 514.241 575.574 513.497 572.358 513.497C570.198 513.497 568.062 513.833 565.95 514.505C563.886 515.177 562.134 516.113 560.694 517.313L557.166 510.761C559.23 509.177 561.678 508.001 564.51 507.233C567.39 506.417 570.366 506.009 573.438 506.009C579.006 506.009 583.302 507.353 586.326 510.041C589.398 512.681 590.934 516.785 590.934 522.353V544.889H582.438ZM570.342 545.393C567.462 545.393 564.942 544.913 562.782 543.953C560.622 542.945 558.942 541.577 557.742 539.849C556.59 538.073 556.014 536.081 556.014 533.873C556.014 531.713 556.518 529.769 557.526 528.041C558.582 526.313 560.286 524.945 562.638 523.937C564.99 522.929 568.11 522.425 571.998 522.425H583.158V528.401H572.646C569.574 528.401 567.51 528.905 566.454 529.913C565.398 530.873 564.87 532.073 564.87 533.513C564.87 535.145 565.518 536.441 566.814 537.401C568.11 538.361 569.91 538.841 572.214 538.841C574.422 538.841 576.39 538.337 578.118 537.329C579.894 536.321 581.166 534.833 581.934 532.865L583.446 538.265C582.582 540.521 581.022 542.273 578.766 543.521C576.558 544.769 573.75 545.393 570.342 545.393ZM614.076 545.393C609.852 545.393 606.588 544.313 604.284 542.153C601.98 539.945 600.828 536.705 600.828 532.433V497.945H609.828V532.217C609.828 534.041 610.284 535.457 611.196 536.465C612.156 537.473 613.476 537.977 615.156 537.977C617.172 537.977 618.852 537.449 620.196 536.393L622.716 542.801C621.66 543.665 620.364 544.313 618.828 544.745C617.292 545.177 615.708 545.393 614.076 545.393ZM594.492 513.929V506.729H620.124V513.929H594.492ZM643.512 545.393C640.248 545.393 637.368 544.793 634.872 543.593C632.376 542.345 630.432 540.473 629.04 537.977C627.648 535.433 626.952 532.241 626.952 528.401V506.441H635.952V527.177C635.952 530.633 636.72 533.225 638.256 534.953C639.84 536.633 642.072 537.473 644.952 537.473C647.064 537.473 648.888 537.041 650.424 536.177C652.008 535.313 653.232 534.017 654.096 532.289C655.008 530.561 655.464 528.425 655.464 525.881V506.441H664.464V544.889H655.896V534.521L657.408 537.689C656.112 540.185 654.216 542.105 651.72 543.449C649.224 544.745 646.488 545.393 643.512 545.393ZM685.248 545.393C682.032 545.393 678.936 544.985 675.96 544.169C673.032 543.305 670.704 542.273 668.976 541.073L672.432 534.233C674.16 535.337 676.224 536.249 678.624 536.969C681.024 537.689 683.424 538.049 685.824 538.049C688.656 538.049 690.696 537.665 691.944 536.897C693.24 536.129 693.888 535.097 693.888 533.801C693.888 532.745 693.456 531.953 692.592 531.425C691.728 530.849 690.6 530.417 689.208 530.129C687.816 529.841 686.256 529.577 684.528 529.337C682.848 529.097 681.144 528.785 679.416 528.401C677.736 527.969 676.2 527.369 674.808 526.601C673.416 525.785 672.288 524.705 671.424 523.361C670.56 522.017 670.128 520.241 670.128 518.033C670.128 515.585 670.824 513.473 672.216 511.697C673.608 509.873 675.552 508.481 678.048 507.521C680.592 506.513 683.592 506.009 687.048 506.009C689.64 506.009 692.256 506.297 694.896 506.873C697.536 507.449 699.72 508.265 701.448 509.321L697.992 516.161C696.168 515.057 694.32 514.313 692.448 513.929C690.624 513.497 688.8 513.281 686.976 513.281C684.24 513.281 682.2 513.689 680.856 514.505C679.56 515.321 678.912 516.353 678.912 517.601C678.912 518.753 679.344 519.617 680.208 520.193C681.072 520.769 682.2 521.225 683.592 521.561C684.984 521.897 686.52 522.185 688.2 522.425C689.928 522.617 691.632 522.929 693.312 523.361C694.992 523.793 696.528 524.393 697.92 525.161C699.36 525.881 700.512 526.913 701.376 528.257C702.24 529.601 702.672 531.353 702.672 533.513C702.672 535.913 701.952 538.001 700.512 539.777C699.12 541.553 697.128 542.945 694.536 543.953C691.944 544.913 688.848 545.393 685.248 545.393ZM724.561 544.889V506.441H733.561V544.889H724.561ZM729.097 500.105C727.417 500.105 726.025 499.577 724.921 498.521C723.865 497.465 723.337 496.193 723.337 494.705C723.337 493.169 723.865 491.897 724.921 490.889C726.025 489.833 727.417 489.305 729.097 489.305C730.777 489.305 732.145 489.809 733.201 490.817C734.305 491.777 734.857 493.001 734.857 494.489C734.857 496.073 734.329 497.417 733.273 498.521C732.217 499.577 730.825 500.105 729.097 500.105ZM764.309 506.009C767.381 506.009 770.117 506.609 772.517 507.809C774.965 509.009 776.885 510.857 778.277 513.353C779.669 515.801 780.365 518.969 780.365 522.857V544.889H771.365V524.009C771.365 520.601 770.549 518.057 768.917 516.377C767.333 514.697 765.101 513.857 762.221 513.857C760.109 513.857 758.237 514.289 756.605 515.153C754.973 516.017 753.701 517.313 752.789 519.041C751.925 520.721 751.493 522.857 751.493 525.449V544.889H742.493V506.441H751.061V516.809L749.549 513.641C750.893 511.193 752.837 509.321 755.381 508.025C757.973 506.681 760.949 506.009 764.309 506.009ZM805.245 545.393C801.549 545.393 798.213 544.577 795.237 542.945C792.309 541.265 790.005 538.961 788.325 536.033C786.645 533.105 785.805 529.649 785.805 525.665C785.805 521.681 786.645 518.225 788.325 515.297C790.005 512.369 792.309 510.089 795.237 508.457C798.213 506.825 801.549 506.009 805.245 506.009C808.461 506.009 811.341 506.729 813.885 508.169C816.429 509.561 818.445 511.697 819.933 514.577C821.421 517.457 822.165 521.153 822.165 525.665C822.165 530.129 821.445 533.825 820.005 536.753C818.565 539.633 816.573 541.793 814.029 543.233C811.485 544.673 808.557 545.393 805.245 545.393ZM806.325 537.689C808.485 537.689 810.405 537.209 812.085 536.249C813.813 535.289 815.181 533.897 816.189 532.073C817.245 530.249 817.773 528.113 817.773 525.665C817.773 523.169 817.245 521.033 816.189 519.257C815.181 517.433 813.813 516.041 812.085 515.081C810.405 514.121 808.485 513.641 806.325 513.641C804.165 513.641 802.221 514.121 800.493 515.081C798.813 516.041 797.445 517.433 796.389 519.257C795.381 521.033 794.877 523.169 794.877 525.665C794.877 528.113 795.381 530.249 796.389 532.073C797.445 533.897 798.813 535.289 800.493 536.249C802.221 537.209 804.165 537.689 806.325 537.689ZM817.989 544.889V535.817L818.349 525.593L817.629 515.369V491.465H826.557V544.889H817.989ZM835.522 544.889V506.441H844.522V544.889H835.522ZM840.058 500.105C838.378 500.105 836.986 499.577 835.882 498.521C834.826 497.465 834.298 496.193 834.298 494.705C834.298 493.169 834.826 491.897 835.882 490.889C836.986 489.833 838.378 489.305 840.058 489.305C841.738 489.305 843.106 489.809 844.162 490.817C845.266 491.777 845.818 493.001 845.818 494.489C845.818 496.073 845.29 497.417 844.234 498.521C843.178 499.577 841.786 500.105 840.058 500.105ZM871.095 545.393C867.063 545.393 863.463 544.553 860.295 542.873C857.175 541.145 854.727 538.793 852.951 535.817C851.175 532.841 850.287 529.457 850.287 525.665C850.287 521.825 851.175 518.441 852.951 515.513C854.727 512.537 857.175 510.209 860.295 508.529C863.463 506.849 867.063 506.009 871.095 506.009C874.839 506.009 878.127 506.777 880.959 508.313C883.839 509.801 886.023 512.009 887.511 514.937L880.599 518.969C879.447 517.145 878.031 515.801 876.351 514.937C874.719 514.073 872.943 513.641 871.023 513.641C868.815 513.641 866.823 514.121 865.047 515.081C863.271 516.041 861.879 517.433 860.871 519.257C859.863 521.033 859.359 523.169 859.359 525.665C859.359 528.161 859.863 530.321 860.871 532.145C861.879 533.921 863.271 535.289 865.047 536.249C866.823 537.209 868.815 537.689 871.023 537.689C872.943 537.689 874.719 537.257 876.351 536.393C878.031 535.529 879.447 534.185 880.599 532.361L887.511 536.393C886.023 539.273 883.839 541.505 880.959 543.089C878.127 544.625 874.839 545.393 871.095 545.393ZM916.099 544.889V537.113L915.595 535.457V521.849C915.595 519.209 914.803 517.169 913.219 515.729C911.635 514.241 909.235 513.497 906.019 513.497C903.859 513.497 901.723 513.833 899.611 514.505C897.547 515.177 895.795 516.113 894.355 517.313L890.827 510.761C892.891 509.177 895.339 508.001 898.171 507.233C901.051 506.417 904.027 506.009 907.099 506.009C912.667 506.009 916.963 507.353 919.987 510.041C923.059 512.681 924.595 516.785 924.595 522.353V544.889H916.099ZM904.003 545.393C901.123 545.393 898.603 544.913 896.443 543.953C894.283 542.945 892.603 541.577 891.403 539.849C890.251 538.073 889.675 536.081 889.675 533.873C889.675 531.713 890.179 529.769 891.187 528.041C892.243 526.313 893.947 524.945 896.299 523.937C898.651 522.929 901.771 522.425 905.659 522.425H916.819V528.401H906.307C903.235 528.401 901.171 528.905 900.115 529.913C899.059 530.873 898.531 532.073 898.531 533.513C898.531 535.145 899.179 536.441 900.475 537.401C901.771 538.361 903.571 538.841 905.875 538.841C908.083 538.841 910.051 538.337 911.779 537.329C913.555 536.321 914.827 534.833 915.595 532.865L917.107 538.265C916.243 540.521 914.683 542.273 912.427 543.521C910.219 544.769 907.411 545.393 904.003 545.393ZM947.737 545.393C943.513 545.393 940.249 544.313 937.945 542.153C935.641 539.945 934.489 536.705 934.489 532.433V497.945H943.489V532.217C943.489 534.041 943.945 535.457 944.857 536.465C945.817 537.473 947.137 537.977 948.817 537.977C950.833 537.977 952.513 537.449 953.857 536.393L956.377 542.801C955.321 543.665 954.025 544.313 952.489 544.745C950.953 545.177 949.369 545.393 947.737 545.393ZM928.153 513.929V506.729H953.785V513.929H928.153ZM976.915 545.393C972.979 545.393 969.475 544.553 966.403 542.873C963.331 541.145 960.907 538.793 959.131 535.817C957.355 532.841 956.467 529.457 956.467 525.665C956.467 521.825 957.355 518.441 959.131 515.513C960.907 512.537 963.331 510.209 966.403 508.529C969.475 506.849 972.979 506.009 976.915 506.009C980.899 506.009 984.427 506.849 987.499 508.529C990.619 510.209 993.043 512.513 994.771 515.441C996.547 518.369 997.435 521.777 997.435 525.665C997.435 529.457 996.547 532.841 994.771 535.817C993.043 538.793 990.619 541.145 987.499 542.873C984.427 544.553 980.899 545.393 976.915 545.393ZM976.915 537.689C979.123 537.689 981.091 537.209 982.819 536.249C984.547 535.289 985.891 533.897 986.851 532.073C987.859 530.249 988.363 528.113 988.363 525.665C988.363 523.169 987.859 521.033 986.851 519.257C985.891 517.433 984.547 516.041 982.819 515.081C981.091 514.121 979.147 513.641 976.987 513.641C974.779 513.641 972.811 514.121 971.083 515.081C969.403 516.041 968.059 517.433 967.051 519.257C966.043 521.033 965.539 523.169 965.539 525.665C965.539 528.113 966.043 530.249 967.051 532.073C968.059 533.897 969.403 535.289 971.083 536.249C972.811 537.209 974.755 537.689 976.915 537.689ZM1003.16 544.889V506.441H1011.73V517.025L1010.72 513.929C1011.87 511.337 1013.67 509.369 1016.12 508.025C1018.62 506.681 1021.71 506.009 1025.41 506.009V514.577C1025.03 514.481 1024.67 514.433 1024.33 514.433C1023.99 514.385 1023.66 514.361 1023.32 514.361C1019.91 514.361 1017.2 515.369 1015.19 517.385C1013.17 519.353 1012.16 522.305 1012.16 526.241V544.889H1003.16ZM223.4 627.393C219.704 627.393 216.368 626.577 213.392 624.945C210.464 623.265 208.16 620.961 206.48 618.033C204.8 615.105 203.96 611.649 203.96 607.665C203.96 603.681 204.8 600.225 206.48 597.297C208.16 594.369 210.464 592.089 213.392 590.457C216.368 588.825 219.704 588.009 223.4 588.009C226.616 588.009 229.496 588.729 232.04 590.169C234.584 591.561 236.6 593.697 238.088 596.577C239.576 599.457 240.32 603.153 240.32 607.665C240.32 612.129 239.6 615.825 238.16 618.753C236.72 621.633 234.728 623.793 232.184 625.233C229.64 626.673 226.712 627.393 223.4 627.393ZM224.48 619.689C226.64 619.689 228.56 619.209 230.24 618.249C231.968 617.289 233.336 615.897 234.344 614.073C235.4 612.249 235.928 610.113 235.928 607.665C235.928 605.169 235.4 603.033 234.344 601.257C233.336 599.433 231.968 598.041 230.24 597.081C228.56 596.121 226.64 595.641 224.48 595.641C222.32 595.641 220.376 596.121 218.648 597.081C216.968 598.041 215.6 599.433 214.544 601.257C213.536 603.033 213.032 605.169 213.032 607.665C213.032 610.113 213.536 612.249 214.544 614.073C215.6 615.897 216.968 617.289 218.648 618.249C220.376 619.209 222.32 619.689 224.48 619.689ZM236.144 626.889V617.817L236.504 607.593L235.784 597.369V573.465H244.712V626.889H236.144ZM270.958 627.393C267.022 627.393 263.518 626.553 260.446 624.873C257.374 623.145 254.95 620.793 253.174 617.817C251.398 614.841 250.51 611.457 250.51 607.665C250.51 603.825 251.398 600.441 253.174 597.513C254.95 594.537 257.374 592.209 260.446 590.529C263.518 588.849 267.022 588.009 270.958 588.009C274.942 588.009 278.47 588.849 281.542 590.529C284.662 592.209 287.086 594.513 288.814 597.441C290.59 600.369 291.478 603.777 291.478 607.665C291.478 611.457 290.59 614.841 288.814 617.817C287.086 620.793 284.662 623.145 281.542 624.873C278.47 626.553 274.942 627.393 270.958 627.393ZM270.958 619.689C273.166 619.689 275.134 619.209 276.862 618.249C278.59 617.289 279.934 615.897 280.894 614.073C281.902 612.249 282.406 610.113 282.406 607.665C282.406 605.169 281.902 603.033 280.894 601.257C279.934 599.433 278.59 598.041 276.862 597.081C275.134 596.121 273.19 595.641 271.03 595.641C268.822 595.641 266.854 596.121 265.126 597.081C263.446 598.041 262.102 599.433 261.094 601.257C260.086 603.033 259.582 605.169 259.582 607.665C259.582 610.113 260.086 612.249 261.094 614.073C262.102 615.897 263.446 617.289 265.126 618.249C266.854 619.209 268.798 619.689 270.958 619.689ZM311.676 627.393C307.452 627.393 304.188 626.313 301.884 624.153C299.58 621.945 298.428 618.705 298.428 614.433V579.945H307.428V614.217C307.428 616.041 307.884 617.457 308.796 618.465C309.756 619.473 311.076 619.977 312.756 619.977C314.772 619.977 316.452 619.449 317.796 618.393L320.316 624.801C319.26 625.665 317.964 626.313 316.428 626.745C314.892 627.177 313.308 627.393 311.676 627.393ZM292.092 595.929V588.729H317.724V595.929H292.092ZM341.858 626.889V588.441H350.858V626.889H341.858ZM346.394 582.105C344.714 582.105 343.322 581.577 342.218 580.521C341.162 579.465 340.634 578.193 340.634 576.705C340.634 575.169 341.162 573.897 342.218 572.889C343.322 571.833 344.714 571.305 346.394 571.305C348.074 571.305 349.442 571.809 350.498 572.817C351.602 573.777 352.154 575.001 352.154 576.489C352.154 578.073 351.626 579.417 350.57 580.521C349.514 581.577 348.122 582.105 346.394 582.105ZM381.607 588.009C384.679 588.009 387.415 588.609 389.815 589.809C392.263 591.009 394.183 592.857 395.575 595.353C396.967 597.801 397.663 600.969 397.663 604.857V626.889H388.663V606.009C388.663 602.601 387.847 600.057 386.215 598.377C384.631 596.697 382.399 595.857 379.519 595.857C377.407 595.857 375.535 596.289 373.903 597.153C372.271 598.017 370.999 599.313 370.087 601.041C369.223 602.721 368.791 604.857 368.791 607.449V626.889H359.791V588.441H368.359V598.809L366.847 595.641C368.191 593.193 370.135 591.321 372.679 590.025C375.271 588.681 378.247 588.009 381.607 588.009ZM437.69 627.393C433.466 627.393 430.202 626.313 427.898 624.153C425.594 621.945 424.442 618.705 424.442 614.433V579.945H433.442V614.217C433.442 616.041 433.898 617.457 434.81 618.465C435.77 619.473 437.09 619.977 438.77 619.977C440.786 619.977 442.466 619.449 443.81 618.393L446.33 624.801C445.274 625.665 443.978 626.313 442.442 626.745C440.906 627.177 439.322 627.393 437.69 627.393ZM418.106 595.929V588.729H443.738V595.929H418.106ZM472.67 588.009C475.742 588.009 478.478 588.609 480.878 589.809C483.326 591.009 485.246 592.857 486.638 595.353C488.03 597.801 488.726 600.969 488.726 604.857V626.889H479.726V606.009C479.726 602.601 478.91 600.057 477.278 598.377C475.694 596.697 473.462 595.857 470.582 595.857C468.47 595.857 466.598 596.289 464.966 597.153C463.334 598.017 462.062 599.313 461.15 601.041C460.286 602.721 459.854 604.857 459.854 607.449V626.889H450.854V573.465H459.854V598.809L457.91 595.641C459.254 593.193 461.198 591.321 463.742 590.025C466.334 588.681 469.31 588.009 472.67 588.009ZM515.405 627.393C511.133 627.393 507.389 626.553 504.173 624.873C501.005 623.145 498.533 620.793 496.757 617.817C495.029 614.841 494.165 611.457 494.165 607.665C494.165 603.825 495.005 600.441 496.685 597.513C498.413 594.537 500.765 592.209 503.741 590.529C506.765 588.849 510.197 588.009 514.037 588.009C517.781 588.009 521.117 588.825 524.045 590.457C526.973 592.089 529.277 594.393 530.957 597.369C532.637 600.345 533.477 603.849 533.477 607.881C533.477 608.265 533.453 608.697 533.405 609.177C533.405 609.657 533.381 610.113 533.333 610.545H501.293V604.569H528.581L525.053 606.441C525.101 604.233 524.645 602.289 523.685 600.609C522.725 598.929 521.405 597.609 519.725 596.649C518.093 595.689 516.197 595.209 514.037 595.209C511.829 595.209 509.885 595.689 508.205 596.649C506.573 597.609 505.277 598.953 504.317 600.681C503.405 602.361 502.949 604.353 502.949 606.657V608.097C502.949 610.401 503.477 612.441 504.533 614.217C505.589 615.993 507.077 617.361 508.997 618.321C510.917 619.281 513.125 619.761 515.621 619.761C517.781 619.761 519.725 619.425 521.453 618.753C523.181 618.081 524.717 617.025 526.061 615.585L530.885 621.129C529.157 623.145 526.973 624.705 524.333 625.809C521.741 626.865 518.765 627.393 515.405 627.393ZM592.549 576.489H601.909V626.889H592.549V576.489ZM566.485 626.889H557.125V576.489H566.485V626.889ZM593.269 605.289H565.693V597.297H593.269V605.289ZM622.758 626.889V584.409H606.054V576.489H648.822V584.409H632.118V626.889H622.758ZM652.966 626.889V576.489H660.67L682.702 613.281H678.67L700.342 576.489H708.046L708.118 626.889H699.262L699.19 590.385H701.062L682.63 621.129H678.454L659.734 590.385H661.894V626.889H652.966ZM718.852 626.889V576.489H728.212V618.969H754.564V626.889H718.852ZM823.756 588.009C826.828 588.009 829.54 588.609 831.892 589.809C834.292 591.009 836.164 592.857 837.508 595.353C838.852 597.801 839.524 600.969 839.524 604.857V626.889H830.524V606.009C830.524 602.601 829.78 600.057 828.292 598.377C826.804 596.697 824.668 595.857 821.884 595.857C819.916 595.857 818.164 596.289 816.628 597.153C815.14 598.017 813.964 599.289 813.1 600.969C812.284 602.649 811.876 604.785 811.876 607.377V626.889H802.876V606.009C802.876 602.601 802.132 600.057 800.644 598.377C799.156 596.697 797.02 595.857 794.236 595.857C792.268 595.857 790.516 596.289 788.98 597.153C787.492 598.017 786.316 599.289 785.452 600.969C784.636 602.649 784.228 604.785 784.228 607.377V626.889H775.228V588.441H783.796V598.665L782.284 595.641C783.58 593.145 785.452 591.249 787.9 589.953C790.396 588.657 793.228 588.009 796.396 588.009C799.996 588.009 803.116 588.897 805.756 590.673C808.444 592.449 810.22 595.137 811.084 598.737L807.556 597.513C808.804 594.633 810.868 592.329 813.748 590.601C816.628 588.873 819.964 588.009 823.756 588.009ZM871.833 626.889V619.113L871.329 617.457V603.849C871.329 601.209 870.537 599.169 868.953 597.729C867.369 596.241 864.969 595.497 861.753 595.497C859.593 595.497 857.457 595.833 855.345 596.505C853.281 597.177 851.529 598.113 850.089 599.313L846.561 592.761C848.625 591.177 851.073 590.001 853.905 589.233C856.785 588.417 859.761 588.009 862.833 588.009C868.401 588.009 872.697 589.353 875.721 592.041C878.793 594.681 880.329 598.785 880.329 604.353V626.889H871.833ZM859.737 627.393C856.857 627.393 854.337 626.913 852.177 625.953C850.017 624.945 848.337 623.577 847.137 621.849C845.985 620.073 845.409 618.081 845.409 615.873C845.409 613.713 845.913 611.769 846.921 610.041C847.977 608.313 849.681 606.945 852.033 605.937C854.385 604.929 857.505 604.425 861.393 604.425H872.553V610.401H862.041C858.969 610.401 856.905 610.905 855.849 611.913C854.793 612.873 854.265 614.073 854.265 615.513C854.265 617.145 854.913 618.441 856.209 619.401C857.505 620.361 859.305 620.841 861.609 620.841C863.817 620.841 865.785 620.337 867.513 619.329C869.289 618.321 870.561 616.833 871.329 614.865L872.841 620.265C871.977 622.521 870.417 624.273 868.161 625.521C865.953 626.769 863.145 627.393 859.737 627.393ZM888.999 626.889V588.441H897.567V599.025L896.559 595.929C897.711 593.337 899.511 591.369 901.959 590.025C904.455 588.681 907.551 588.009 911.247 588.009V596.577C910.863 596.481 910.503 596.433 910.167 596.433C909.831 596.385 909.495 596.361 909.159 596.361C905.751 596.361 903.039 597.369 901.023 599.385C899.007 601.353 897.999 604.305 897.999 608.241V626.889H888.999ZM923.346 618.321L923.562 607.017L943.65 588.441H954.45L937.386 605.577L932.634 609.537L923.346 618.321ZM916.002 626.889V573.465H925.002V626.889H916.002ZM945.018 626.889L930.978 609.537L936.666 602.337L955.962 626.889H945.018ZM974.464 627.393C971.2 627.393 968.32 626.793 965.824 625.593C963.328 624.345 961.384 622.473 959.992 619.977C958.6 617.433 957.904 614.241 957.904 610.401V588.441H966.904V609.177C966.904 612.633 967.672 615.225 969.208 616.953C970.792 618.633 973.024 619.473 975.904 619.473C978.016 619.473 979.84 619.041 981.376 618.177C982.96 617.313 984.184 616.017 985.048 614.289C985.96 612.561 986.416 610.425 986.416 607.881V588.441H995.416V626.889H986.848V616.521L988.36 619.689C987.064 622.185 985.168 624.105 982.672 625.449C980.176 626.745 977.44 627.393 974.464 627.393ZM1025.63 627.393C1022.51 627.393 1019.66 626.673 1017.06 625.233C1014.52 623.793 1012.48 621.633 1010.94 618.753C1009.46 615.825 1008.71 612.129 1008.71 607.665C1008.71 603.153 1009.43 599.457 1010.87 596.577C1012.36 593.697 1014.38 591.561 1016.92 590.169C1019.46 588.729 1022.37 588.009 1025.63 588.009C1029.42 588.009 1032.76 588.825 1035.64 590.457C1038.57 592.089 1040.87 594.369 1042.55 597.297C1044.28 600.225 1045.14 603.681 1045.14 607.665C1045.14 611.649 1044.28 615.129 1042.55 618.105C1040.87 621.033 1038.57 623.313 1035.64 624.945C1032.76 626.577 1029.42 627.393 1025.63 627.393ZM1004.32 640.857V588.441H1012.89V597.513L1012.6 607.737L1013.32 617.961V640.857H1004.32ZM1024.62 619.689C1026.78 619.689 1028.7 619.209 1030.38 618.249C1032.11 617.289 1033.48 615.897 1034.49 614.073C1035.5 612.249 1036 610.113 1036 607.665C1036 605.169 1035.5 603.033 1034.49 601.257C1033.48 599.433 1032.11 598.041 1030.38 597.081C1028.7 596.121 1026.78 595.641 1024.62 595.641C1022.46 595.641 1020.52 596.121 1018.79 597.081C1017.06 598.041 1015.7 599.433 1014.69 601.257C1013.68 603.033 1013.18 605.169 1013.18 607.665C1013.18 610.113 1013.68 612.249 1014.69 614.073C1015.7 615.897 1017.06 617.289 1018.79 618.249C1020.52 619.209 1022.46 619.689 1024.62 619.689Z" fill="black"/>
<g filter="url(#filter0_d_1186_46)">
<g clip-path="url(#clip0_1186_46)">
<g filter="url(#filter1_d_1186_46)">
<path d="M291 86.4443C291 82.0261 294.582 78.4443 299 78.4443H948C952.418 78.4443 956 82.0261 956 86.4443V361.444C956 365.863 952.418 369.444 948 369.444H299C294.582 369.444 291 365.863 291 361.444V86.4443Z" fill="#242C5C"/>
</g>
<path d="M372.992 98.4443V55.9643H356.288V48.0443H399.056V55.9643H382.352V98.4443H372.992Z" fill="white"/>
<path d="M416.471 98.9483C412.199 98.9483 408.455 98.1083 405.239 96.4283C402.071 94.7003 399.599 92.3483 397.823 89.3723C396.095 86.3963 395.231 83.0123 395.231 79.2203C395.231 75.3803 396.071 71.9963 397.751 69.0683C399.479 66.0923 401.831 63.7643 404.807 62.0843C407.831 60.4043 411.263 59.5643 415.103 59.5643C418.847 59.5643 422.183 60.3803 425.111 62.0123C428.039 63.6443 430.343 65.9483 432.023 68.9243C433.703 71.9003 434.543 75.4043 434.543 79.4363C434.543 79.8203 434.519 80.2523 434.471 80.7323C434.471 81.2123 434.447 81.6683 434.399 82.1003H402.359V76.1243H429.647L426.119 77.9963C426.167 75.7883 425.711 73.8443 424.751 72.1643C423.791 70.4843 422.471 69.1643 420.791 68.2043C419.159 67.2443 417.263 66.7643 415.103 66.7643C412.895 66.7643 410.951 67.2443 409.271 68.2043C407.639 69.1643 406.343 70.5083 405.383 72.2363C404.471 73.9163 404.015 75.9083 404.015 78.2123V79.6523C404.015 81.9563 404.543 83.9963 405.599 85.7723C406.655 87.5483 408.143 88.9163 410.063 89.8763C411.983 90.8363 414.191 91.3163 416.687 91.3163C418.847 91.3163 420.791 90.9803 422.519 90.3083C424.247 89.6363 425.783 88.5803 427.127 87.1403L431.951 92.6843C430.223 94.7003 428.039 96.2603 425.399 97.3643C422.807 98.4203 419.831 98.9483 416.471 98.9483Z" fill="white"/>
<path d="M440.308 98.4443V59.9963H448.876V70.5803L447.868 67.4843C449.02 64.8923 450.82 62.9243 453.268 61.5803C455.764 60.2363 458.86 59.5643 462.556 59.5643V68.1323C462.172 68.0363 461.812 67.9883 461.476 67.9883C461.14 67.9403 460.804 67.9163 460.468 67.9163C457.06 67.9163 454.348 68.9243 452.332 70.9403C450.316 72.9083 449.308 75.8603 449.308 79.7963V98.4443H440.308Z" fill="white"/>
<path d="M515.839 59.5643C518.911 59.5643 521.623 60.1643 523.975 61.3643C526.375 62.5643 528.247 64.4123 529.591 66.9083C530.935 69.3563 531.607 72.5243 531.607 76.4123V98.4443H522.607V77.5643C522.607 74.1563 521.863 71.6123 520.375 69.9323C518.887 68.2523 516.751 67.4123 513.967 67.4123C511.999 67.4123 510.247 67.8443 508.711 68.7083C507.223 69.5723 506.047 70.8443 505.183 72.5243C504.367 74.2043 503.959 76.3403 503.959 78.9323V98.4443H494.959V77.5643C494.959 74.1563 494.215 71.6123 492.727 69.9323C491.239 68.2523 489.103 67.4123 486.319 67.4123C484.351 67.4123 482.599 67.8443 481.063 68.7083C479.575 69.5723 478.399 70.8443 477.535 72.5243C476.719 74.2043 476.311 76.3403 476.311 78.9323V98.4443H467.311V59.9963H475.879V70.2203L474.367 67.1963C475.663 64.7003 477.535 62.8043 479.983 61.5083C482.479 60.2123 485.311 59.5643 488.479 59.5643C492.079 59.5643 495.199 60.4523 497.839 62.2283C500.527 64.0043 502.303 66.6923 503.167 70.2923L499.639 69.0683C500.887 66.1883 502.951 63.8843 505.831 62.1563C508.711 60.4283 512.047 59.5643 515.839 59.5643Z" fill="white"/>
<path d="M552.108 98.9483C548.892 98.9483 545.796 98.5403 542.82 97.7243C539.892 96.8603 537.564 95.8283 535.836 94.6283L539.292 87.7883C541.02 88.8923 543.084 89.8043 545.484 90.5243C547.884 91.2443 550.284 91.6043 552.684 91.6043C555.516 91.6043 557.556 91.2203 558.804 90.4523C560.1 89.6843 560.748 88.6523 560.748 87.3563C560.748 86.3003 560.316 85.5083 559.452 84.9803C558.588 84.4043 557.46 83.9723 556.068 83.6843C554.676 83.3963 553.116 83.1323 551.388 82.8923C549.708 82.6523 548.004 82.3403 546.276 81.9563C544.596 81.5243 543.06 80.9243 541.668 80.1563C540.276 79.3403 539.148 78.2603 538.284 76.9163C537.42 75.5723 536.988 73.7963 536.988 71.5883C536.988 69.1403 537.684 67.0283 539.076 65.2523C540.468 63.4283 542.412 62.0363 544.908 61.0763C547.452 60.0683 550.452 59.5643 553.908 59.5643C556.5 59.5643 559.116 59.8523 561.756 60.4283C564.396 61.0043 566.58 61.8203 568.308 62.8763L564.852 69.7163C563.028 68.6123 561.18 67.8683 559.308 67.4843C557.484 67.0523 555.66 66.8363 553.836 66.8363C551.1 66.8363 549.06 67.2443 547.716 68.0603C546.42 68.8763 545.772 69.9083 545.772 71.1563C545.772 72.3083 546.204 73.1723 547.068 73.7483C547.932 74.3243 549.06 74.7803 550.452 75.1163C551.844 75.4523 553.38 75.7403 555.06 75.9803C556.788 76.1723 558.492 76.4843 560.172 76.9163C561.852 77.3483 563.388 77.9483 564.78 78.7163C566.22 79.4363 567.372 80.4683 568.236 81.8123C569.1 83.1563 569.532 84.9083 569.532 87.0683C569.532 89.4683 568.812 91.5563 567.372 93.3323C565.98 95.1083 563.988 96.5003 561.396 97.5083C558.804 98.4683 555.708 98.9483 552.108 98.9483Z" fill="white"/>
<path d="M378.392 243.164C374.456 243.164 370.688 242.612 367.088 241.508C363.488 240.356 360.632 238.892 358.52 237.116L361.76 229.844C363.776 231.428 366.272 232.748 369.248 233.804C372.224 234.86 375.272 235.388 378.392 235.388C381.032 235.388 383.168 235.1 384.8 234.524C386.432 233.948 387.632 233.18 388.4 232.22C389.168 231.212 389.552 230.084 389.552 228.836C389.552 227.3 389 226.076 387.896 225.164C386.792 224.204 385.352 223.46 383.576 222.932C381.848 222.356 379.904 221.828 377.744 221.348C375.632 220.868 373.496 220.316 371.336 219.692C369.224 219.02 367.28 218.18 365.504 217.172C363.776 216.116 362.36 214.724 361.256 212.996C360.152 211.268 359.6 209.06 359.6 206.372C359.6 203.636 360.32 201.14 361.76 198.884C363.248 196.58 365.48 194.756 368.456 193.412C371.48 192.02 375.296 191.324 379.904 191.324C382.928 191.324 385.928 191.708 388.904 192.476C391.88 193.244 394.472 194.348 396.68 195.788L393.728 203.06C391.472 201.716 389.144 200.732 386.744 200.108C384.344 199.436 382.04 199.1 379.832 199.1C377.24 199.1 375.128 199.412 373.496 200.036C371.912 200.66 370.736 201.476 369.968 202.484C369.248 203.492 368.888 204.644 368.888 205.94C368.888 207.476 369.416 208.724 370.472 209.684C371.576 210.596 372.992 211.316 374.72 211.844C376.496 212.372 378.464 212.9 380.624 213.428C382.784 213.908 384.92 214.46 387.032 215.084C389.192 215.708 391.136 216.524 392.864 217.532C394.64 218.54 396.056 219.908 397.112 221.636C398.216 223.364 398.768 225.548 398.768 228.188C398.768 230.876 398.024 233.372 396.536 235.676C395.096 237.932 392.864 239.756 389.84 241.148C386.816 242.492 383 243.164 378.392 243.164Z" fill="white"/>
<path d="M418.777 242.948C414.553 242.948 411.289 241.868 408.985 239.708C406.681 237.5 405.529 234.26 405.529 229.988V195.5H414.529V229.772C414.529 231.596 414.985 233.012 415.897 234.02C416.857 235.028 418.177 235.532 419.857 235.532C421.873 235.532 423.553 235.004 424.897 233.948L427.417 240.356C426.361 241.22 425.065 241.868 423.529 242.3C421.993 242.732 420.409 242.948 418.777 242.948ZM399.193 211.484V204.284H424.825V211.484H399.193Z" fill="white"/>
<path d="M455.629 242.444V234.668L455.125 233.012V219.404C455.125 216.764 454.333 214.724 452.749 213.284C451.165 211.796 448.765 211.052 445.549 211.052C443.389 211.052 441.253 211.388 439.141 212.06C437.077 212.732 435.325 213.668 433.885 214.868L430.357 208.316C432.421 206.732 434.869 205.556 437.701 204.788C440.581 203.972 443.557 203.564 446.629 203.564C452.197 203.564 456.493 204.908 459.517 207.596C462.589 210.236 464.125 214.34 464.125 219.908V242.444H455.629ZM443.533 242.948C440.653 242.948 438.133 242.468 435.973 241.508C433.813 240.5 432.133 239.132 430.933 237.404C429.781 235.628 429.205 233.636 429.205 231.428C429.205 229.268 429.709 227.324 430.717 225.596C431.773 223.868 433.477 222.5 435.829 221.492C438.181 220.484 441.301 219.98 445.189 219.98H456.349V225.956H445.837C442.765 225.956 440.701 226.46 439.645 227.468C438.589 228.428 438.061 229.628 438.061 231.068C438.061 232.7 438.709 233.996 440.005 234.956C441.301 235.916 443.101 236.396 445.405 236.396C447.613 236.396 449.581 235.892 451.309 234.884C453.085 233.876 454.357 232.388 455.125 230.42L456.637 235.82C455.773 238.076 454.213 239.828 451.957 241.076C449.749 242.324 446.941 242.948 443.533 242.948Z" fill="white"/>
<path d="M487.267 242.948C483.043 242.948 479.779 241.868 477.475 239.708C475.171 237.5 474.019 234.26 474.019 229.988V195.5H483.019V229.772C483.019 231.596 483.475 233.012 484.387 234.02C485.347 235.028 486.667 235.532 488.347 235.532C490.363 235.532 492.043 235.004 493.387 233.948L495.907 240.356C494.851 241.22 493.555 241.868 492.019 242.3C490.483 242.732 488.899 242.948 487.267 242.948ZM467.683 211.484V204.284H493.315V211.484H467.683Z" fill="white"/>
<path d="M516.703 242.948C513.439 242.948 510.559 242.348 508.063 241.148C505.567 239.9 503.623 238.028 502.231 235.532C500.839 232.988 500.143 229.796 500.143 225.956V203.996H509.143V224.732C509.143 228.188 509.911 230.78 511.447 232.508C513.031 234.188 515.263 235.028 518.143 235.028C520.255 235.028 522.079 234.596 523.615 233.732C525.199 232.868 526.423 231.572 527.287 229.844C528.199 228.116 528.655 225.98 528.655 223.436V203.996H537.655V242.444H529.087V232.076L530.599 235.244C529.303 237.74 527.407 239.66 524.911 241.004C522.415 242.3 519.679 242.948 516.703 242.948Z" fill="white"/>
<path d="M558.439 242.948C555.223 242.948 552.127 242.54 549.151 241.724C546.223 240.86 543.895 239.828 542.167 238.628L545.623 231.788C547.351 232.892 549.415 233.804 551.815 234.524C554.215 235.244 556.615 235.604 559.015 235.604C561.847 235.604 563.887 235.22 565.135 234.452C566.431 233.684 567.079 232.652 567.079 231.356C567.079 230.3 566.647 229.508 565.783 228.98C564.919 228.404 563.791 227.972 562.399 227.684C561.007 227.396 559.447 227.132 557.719 226.892C556.039 226.652 554.335 226.34 552.607 225.956C550.927 225.524 549.391 224.924 547.999 224.156C546.607 223.34 545.479 222.26 544.615 220.916C543.751 219.572 543.319 217.796 543.319 215.588C543.319 213.14 544.015 211.028 545.407 209.252C546.799 207.428 548.743 206.036 551.239 205.076C553.783 204.068 556.783 203.564 560.239 203.564C562.831 203.564 565.447 203.852 568.087 204.428C570.727 205.004 572.911 205.82 574.639 206.876L571.183 213.716C569.359 212.612 567.511 211.868 565.639 211.484C563.815 211.052 561.991 210.836 560.167 210.836C557.431 210.836 555.391 211.244 554.047 212.06C552.751 212.876 552.103 213.908 552.103 215.156C552.103 216.308 552.535 217.172 553.399 217.748C554.263 218.324 555.391 218.78 556.783 219.116C558.175 219.452 559.711 219.74 561.391 219.98C563.119 220.172 564.823 220.484 566.503 220.916C568.183 221.348 569.719 221.948 571.111 222.716C572.551 223.436 573.703 224.468 574.567 225.812C575.431 227.156 575.863 228.908 575.863 231.068C575.863 233.468 575.143 235.556 573.703 237.332C572.311 239.108 570.319 240.5 567.727 241.508C565.135 242.468 562.039 242.948 558.439 242.948Z" fill="white"/>
<path d="M362.768 386.444V336.044H383.504C387.968 336.044 391.784 336.764 394.952 338.204C398.168 339.644 400.64 341.708 402.368 344.396C404.096 347.084 404.96 350.276 404.96 353.972C404.96 357.668 404.096 360.86 402.368 363.548C400.64 366.236 398.168 368.3 394.952 369.74C391.784 371.18 387.968 371.9 383.504 371.9H367.952L372.128 367.508V386.444H362.768ZM372.128 368.516L367.952 363.98H383.072C387.2 363.98 390.296 363.116 392.36 361.388C394.472 359.612 395.528 357.14 395.528 353.972C395.528 350.756 394.472 348.284 392.36 346.556C390.296 344.828 387.2 343.964 383.072 343.964H367.952L372.128 339.356V368.516Z" fill="white"/>
<path d="M410.212 386.444V347.996H418.78V358.58L417.772 355.484C418.924 352.892 420.724 350.924 423.172 349.58C425.668 348.236 428.764 347.564 432.46 347.564V356.132C432.076 356.036 431.716 355.988 431.38 355.988C431.044 355.94 430.708 355.916 430.372 355.916C426.964 355.916 424.252 356.924 422.236 358.94C420.22 360.908 419.212 363.86 419.212 367.796V386.444H410.212Z" fill="white"/>
<path d="M437.214 386.444V347.996H446.214V386.444H437.214ZM441.75 341.66C440.07 341.66 438.678 341.132 437.574 340.076C436.518 339.02 435.99 337.748 435.99 336.26C435.99 334.724 436.518 333.452 437.574 332.444C438.678 331.388 440.07 330.86 441.75 330.86C443.43 330.86 444.798 331.364 445.854 332.372C446.958 333.332 447.51 334.556 447.51 336.044C447.51 337.628 446.982 338.972 445.926 340.076C444.87 341.132 443.478 341.66 441.75 341.66Z" fill="white"/>
<path d="M465.371 386.444L448.883 347.996H458.243L472.427 381.908H467.819L482.507 347.996H491.147L474.659 386.444H465.371Z" fill="white"/>
<path d="M516.385 386.444V378.668L515.881 377.012V363.404C515.881 360.764 515.089 358.724 513.505 357.284C511.921 355.796 509.521 355.052 506.305 355.052C504.145 355.052 502.009 355.388 499.897 356.06C497.833 356.732 496.081 357.668 494.641 358.868L491.113 352.316C493.177 350.732 495.625 349.556 498.457 348.788C501.337 347.972 504.313 347.564 507.385 347.564C512.953 347.564 517.249 348.908 520.273 351.596C523.345 354.236 524.881 358.34 524.881 363.908V386.444H516.385ZM504.289 386.948C501.409 386.948 498.889 386.468 496.729 385.508C494.569 384.5 492.889 383.132 491.689 381.404C490.537 379.628 489.961 377.636 489.961 375.428C489.961 373.268 490.465 371.324 491.473 369.596C492.529 367.868 494.233 366.5 496.585 365.492C498.937 364.484 502.057 363.98 505.945 363.98H517.105V369.956H506.593C503.521 369.956 501.457 370.46 500.401 371.468C499.345 372.428 498.817 373.628 498.817 375.068C498.817 376.7 499.465 377.996 500.761 378.956C502.057 379.916 503.857 380.396 506.161 380.396C508.369 380.396 510.337 379.892 512.065 378.884C513.841 377.876 515.113 376.388 515.881 374.42L517.393 379.82C516.529 382.076 514.969 383.828 512.713 385.076C510.505 386.324 507.697 386.948 504.289 386.948Z" fill="white"/>
<path d="M551.261 386.948C547.229 386.948 543.629 386.108 540.461 384.428C537.341 382.7 534.893 380.348 533.117 377.372C531.341 374.396 530.453 371.012 530.453 367.22C530.453 363.38 531.341 359.996 533.117 357.068C534.893 354.092 537.341 351.764 540.461 350.084C543.629 348.404 547.229 347.564 551.261 347.564C555.005 347.564 558.293 348.332 561.125 349.868C564.005 351.356 566.189 353.564 567.677 356.492L560.765 360.524C559.613 358.7 558.197 357.356 556.517 356.492C554.885 355.628 553.109 355.196 551.189 355.196C548.981 355.196 546.989 355.676 545.213 356.636C543.437 357.596 542.045 358.988 541.037 360.812C540.029 362.588 539.525 364.724 539.525 367.22C539.525 369.716 540.029 371.876 541.037 373.7C542.045 375.476 543.437 376.844 545.213 377.804C546.989 378.764 548.981 379.244 551.189 379.244C553.109 379.244 554.885 378.812 556.517 377.948C558.197 377.084 559.613 375.74 560.765 373.916L567.677 377.948C566.189 380.828 564.005 383.06 561.125 384.644C558.293 386.18 555.005 386.948 551.261 386.948Z" fill="white"/>
<path d="M575.253 400.916C573.381 400.916 571.509 400.604 569.637 399.98C567.765 399.356 566.205 398.492 564.957 397.388L568.557 390.764C569.469 391.58 570.501 392.228 571.653 392.708C572.805 393.188 573.981 393.428 575.181 393.428C576.813 393.428 578.133 393.02 579.141 392.204C580.149 391.388 581.085 390.02 581.949 388.1L584.181 383.06L584.901 381.98L599.445 347.996H608.085L590.085 389.54C588.885 392.42 587.541 394.7 586.053 396.38C584.613 398.06 582.981 399.236 581.157 399.908C579.381 400.58 577.413 400.916 575.253 400.916ZM583.173 387.812L565.821 347.996H575.181L589.293 381.188L583.173 387.812Z" fill="white"/>
<circle cx="685" cy="216.444" r="50" fill="#81FF81"/>
</g>
</g>
<defs>
<filter id="filter0_d_1186_46" x="227" y="54.4443" width="793" height="419" filterUnits="userSpaceOnUse" color-interpolation-filters="sRGB">
<feFlood flood-opacity="0" result="BackgroundImageFix"/>
<feColorMatrix in="SourceAlpha" type="matrix" values="0 0 0 0 0 0 0 0 0 0 0 0 0 0 0 0 0 0 127 0" result="hardAlpha"/>
<feOffset dy="40"/>
<feGaussianBlur stdDeviation="32"/>
<feColorMatrix type="matrix" values="0 0 0 0 0 0 0 0 0 0 0 0 0 0 0 0 0 0 0.1 0"/>
<feBlend mode="normal" in2="BackgroundImageFix" result="effect1_dropShadow_1186_46"/>
<feBlend mode="normal" in="SourceGraphic" in2="effect1_dropShadow_1186_46" result="shape"/>
</filter>
<filter id="filter1_d_1186_46" x="243" y="35.4443" width="761" height="387" filterUnits="userSpaceOnUse" color-interpolation-filters="sRGB">
<feFlood flood-opacity="0" result="BackgroundImageFix"/>
<feColorMatrix in="SourceAlpha" type="matrix" values="0 0 0 0 0 0 0 0 0 0 0 0 0 0 0 0 0 0 127 0" result="hardAlpha"/>
<feOffset dy="5"/>
<feGaussianBlur stdDeviation="24"/>
<feColorMatrix type="matrix" values="0 0 0 0 0 0 0 0 0 0 0 0 0 0 0 0 0 0 0.5 0"/>
<feBlend mode="normal" in2="BackgroundImageFix" result="effect1_dropShadow_1186_46"/>
<feBlend mode="normal" in="SourceGraphic" in2="effect1_dropShadow_1186_46" result="shape"/>
</filter>
<clipPath id="clip0_1186_46">
<rect x="291" y="78.4443" width="665" height="291" rx="16" fill="white"/>
</clipPath>
</defs>
</svg>
