<svg width="640" height="320" viewBox="0 0 640 320" fill="none" xmlns="http://www.w3.org/2000/svg">
<g clip-path="url(#clip0)">
<g filter="url(#filter0_dd)">
<path d="M376 96H264C259.582 96 256 99.5817 256 104V216C256 220.418 259.582 224 264 224H376C380.418 224 384 220.418 384 216V104C384 99.5817 380.418 96 376 96Z" fill="black"/>
</g>
<path d="M343.527 127.727L343.533 127.73C348.832 130.556 352.86 134.545 355.638 139.712L343.461 146.815C341.258 143.536 338.525 141.041 335.261 139.359C331.844 137.453 328.079 136.504 323.988 136.504C317.027 136.504 311.199 138.801 306.581 143.417C301.94 147.959 299.66 154.042 299.66 161.552C299.66 169.059 301.89 175.183 306.425 179.819L306.433 179.827L306.441 179.835C311.064 184.357 316.94 186.6 323.988 186.6C328.076 186.6 331.838 185.701 335.256 183.892L335.256 183.892L335.265 183.887C338.526 182.117 341.257 179.576 343.462 176.289L355.628 183.386C352.762 188.563 348.685 192.604 343.381 195.522C337.886 198.502 331.479 200.008 324.132 200.008C316.309 200.008 309.321 198.36 303.144 195.085C296.965 191.808 292.159 187.279 288.705 181.491C285.251 175.609 283.516 168.972 283.516 161.552C283.516 154.131 285.252 147.543 288.703 141.76C292.159 135.968 296.92 131.438 303.003 128.162C309.177 124.889 316.212 123.24 324.132 123.24C331.579 123.24 338.034 124.747 343.527 127.727Z" stroke="white" stroke-width="2"/>
<path d="M345 161C345 172.046 336.046 181 325 181C313.954 181 305 172.046 305 161C305 149.954 313.954 141 325 141C336.046 141 345 149.954 345 161Z" stroke="white" stroke-width="2"/>
</g>
<defs>
<filter id="filter0_dd" x="156" y="21" width="328" height="328" filterUnits="userSpaceOnUse" color-interpolation-filters="sRGB">
<feFlood flood-opacity="0" result="BackgroundImageFix"/>
<feColorMatrix in="SourceAlpha" type="matrix" values="0 0 0 0 0 0 0 0 0 0 0 0 0 0 0 0 0 0 127 0"/>
<feOffset dy="8"/>
<feGaussianBlur stdDeviation="10"/>
<feColorMatrix type="matrix" values="0 0 0 0 0 0 0 0 0 0 0 0 0 0 0 0 0 0 0.3 0"/>
<feBlend mode="normal" in2="BackgroundImageFix" result="effect1_dropShadow"/>
<feColorMatrix in="SourceAlpha" type="matrix" values="0 0 0 0 0 0 0 0 0 0 0 0 0 0 0 0 0 0 127 0"/>
<feOffset dy="25"/>
<feGaussianBlur stdDeviation="50"/>
<feColorMatrix type="matrix" values="0 0 0 0 0 0 0 0 0 0 0 0 0 0 0 0 0 0 0.05 0"/>
<feBlend mode="normal" in2="effect1_dropShadow" result="effect2_dropShadow"/>
<feBlend mode="normal" in="SourceGraphic" in2="effect2_dropShadow" result="shape"/>
</filter>
<clipPath id="clip0">
<rect width="640" height="320" fill="white"/>
</clipPath>
</defs>
</svg>
