<svg width="1920" height="1113" viewBox="0 0 1920 1113" fill="none" xmlns="http://www.w3.org/2000/svg">
<rect width="1920" height="1112.56" transform="matrix(1 0 0 -1 0 1112.56)" fill="white"/>
<path d="M438.855 408.368C428.926 408.368 420.015 406.274 412.12 402.088C404.225 397.901 398.065 392.099 393.639 384.683C389.213 377.147 387 368.654 387 359.204C387 349.754 389.213 341.321 393.639 333.905C398.065 326.488 404.165 320.687 411.941 316.5C419.835 312.314 428.807 310.22 438.855 310.22C448.305 310.22 456.558 312.134 463.616 315.962C470.793 319.79 476.176 325.292 479.764 332.469L462.539 342.517C459.788 338.092 456.319 334.802 452.133 332.649C448.065 330.376 443.58 329.24 438.675 329.24C430.302 329.24 423.364 331.991 417.862 337.493C412.359 342.876 409.608 350.113 409.608 359.204C409.608 368.295 412.299 375.592 417.682 381.095C423.185 386.477 430.182 389.169 438.675 389.169C443.58 389.169 448.065 388.092 452.133 385.939C456.319 383.666 459.788 380.317 462.539 375.891L479.764 385.939C476.056 393.116 470.614 398.678 463.437 402.626C456.379 406.454 448.185 408.368 438.855 408.368Z" fill="black"/>
<path d="M533.962 409.624C523.794 409.624 513.925 408.368 504.356 405.856C494.786 403.344 487.011 399.995 481.03 395.808L492.693 369.611C498.315 373.32 504.834 376.31 512.251 378.583C519.667 380.856 526.964 381.992 534.141 381.992C547.778 381.992 554.596 378.583 554.596 371.764C554.596 368.176 552.622 365.544 548.675 363.87C544.847 362.075 538.627 360.221 530.014 358.307C520.564 356.274 512.669 354.121 506.33 351.848C499.99 349.456 494.547 345.688 490.002 340.544C485.456 335.4 483.183 328.462 483.183 319.73C483.183 312.075 485.277 305.197 489.463 299.096C493.65 292.876 499.87 287.971 508.124 284.383C516.497 280.794 526.725 279 538.806 279C547.06 279 555.194 279.957 563.208 281.871C571.223 283.665 578.28 286.357 584.381 289.945L573.436 316.321C561.474 309.862 549.871 306.632 538.627 306.632C531.569 306.632 526.426 307.709 523.196 309.862C519.966 311.895 518.351 314.587 518.351 317.936C518.351 321.285 520.265 323.797 524.093 325.472C527.921 327.147 534.081 328.881 542.574 330.675C552.144 332.709 560.039 334.922 566.259 337.314C572.599 339.587 578.041 343.295 582.587 348.439C587.252 353.463 589.584 360.341 589.584 369.073C589.584 376.609 587.491 383.427 583.304 389.528C579.118 395.628 572.838 400.533 564.464 404.241C556.091 407.83 545.924 409.624 533.962 409.624ZM662.515 403.164C659.644 404.959 656.115 406.334 651.929 407.291C647.862 408.248 643.496 408.727 638.831 408.727C626.151 408.727 616.402 405.617 609.584 399.396C602.765 393.176 599.356 383.906 599.356 371.585V338.929H585.181V313.45H599.356V288.151H633.448V313.45H655.697V338.929H633.448V371.226C633.448 374.695 634.345 377.446 636.139 379.48C638.053 381.394 640.565 382.351 643.675 382.351C647.623 382.351 651.092 381.334 654.082 379.3L662.515 403.164ZM769.502 309.862V407.112H737.025V397.423C730.685 404.959 721.116 408.727 708.317 408.727C699.465 408.727 691.391 406.693 684.094 402.626C676.917 398.44 671.175 392.518 666.869 384.863C662.682 377.207 660.589 368.355 660.589 358.307C660.589 348.259 662.682 339.467 666.869 331.931C671.175 324.276 676.917 318.414 684.094 314.347C691.391 310.28 699.465 308.247 708.317 308.247C719.8 308.247 728.831 311.596 735.41 318.295V309.862H769.502ZM715.494 381.633C721.475 381.633 726.379 379.6 730.207 375.532C734.035 371.346 735.949 365.604 735.949 358.307C735.949 351.13 734.035 345.508 730.207 341.441C726.379 337.374 721.475 335.341 715.494 335.341C709.513 335.341 704.609 337.374 700.781 341.441C696.953 345.508 695.039 351.13 695.039 358.307C695.039 365.604 696.953 371.346 700.781 375.532C704.609 379.6 709.513 381.633 715.494 381.633ZM849.583 403.164C846.712 404.959 843.184 406.334 838.997 407.291C834.93 408.248 830.564 408.727 825.899 408.727C813.219 408.727 803.47 405.617 796.652 399.396C789.834 393.176 786.424 383.906 786.424 371.585V338.929H772.25V313.45H786.424V288.151H820.516V313.45H842.765V338.929H820.516V371.226C820.516 374.695 821.413 377.446 823.207 379.48C825.121 381.394 827.633 382.351 830.743 382.351C834.691 382.351 838.16 381.334 841.15 379.3L849.583 403.164ZM950.355 358.666C950.355 358.905 950.176 361.716 949.817 367.099H879.122C880.558 372.123 883.309 376.011 887.376 378.762C891.562 381.394 896.766 382.71 902.986 382.71C907.651 382.71 911.658 382.052 915.008 380.736C918.477 379.42 921.946 377.267 925.415 374.276L943.357 392.937C933.908 403.463 920.092 408.727 901.909 408.727C890.546 408.727 880.557 406.574 871.947 402.267C863.334 397.961 856.636 391.98 851.851 384.324C847.186 376.669 844.853 367.996 844.853 358.307C844.853 348.738 847.126 340.185 851.672 332.649C856.337 324.993 862.736 319.013 870.87 314.706C879.002 310.4 888.153 308.247 898.321 308.247C908.01 308.247 916.802 310.28 924.697 314.347C932.592 318.295 938.812 324.096 943.357 331.752C948.023 339.288 950.355 348.259 950.355 358.666ZM898.5 332.47C893.237 332.47 888.811 333.965 885.223 336.955C881.754 339.946 879.541 344.013 878.586 349.157H918.417C917.46 344.013 915.187 339.946 911.599 336.955C908.13 333.965 903.764 332.47 898.5 332.47Z" fill="black"/>
<g filter="url(#filter0_d_1186_43)">
<path d="M441.237 384.683C455.689 384.683 467.404 372.968 467.404 358.517C467.404 344.065 455.689 332.35 441.237 332.35C426.786 332.35 415.071 344.065 415.071 358.517C415.071 372.968 426.786 384.683 441.237 384.683Z" fill="black"/>
</g>
<path d="M1042.16 342.889C1042.16 317.749 1062.56 297.369 1087.73 297.369H1486.43C1511.6 297.369 1532 317.749 1532 342.889V345.734C1532 370.875 1511.6 391.255 1486.43 391.255H1087.73C1062.56 391.255 1042.16 370.875 1042.16 345.734V342.889Z" fill="black"/>
<path d="M1132.5 325.819H1139.9V365.65H1132.5V325.819ZM1111.88 365.65H1104.47V325.819H1111.88V365.65ZM1133.07 348.579H1111.25V342.264H1133.07V348.579Z" fill="white"/>
<path d="M1156.39 365.65V332.078H1143.18V325.819H1177.01V332.078H1163.8V365.65H1156.39Z" fill="white"/>
<path d="M1180.29 365.65V325.819H1186.39L1203.81 354.895H1200.63L1217.77 325.819H1223.86L1223.92 365.65H1216.92L1216.86 336.801H1218.34L1203.76 361.098H1200.45L1185.65 336.801H1187.35V365.65H1180.29Z" fill="white"/>
<path d="M1232.41 365.65V325.819H1239.82V359.391H1260.66V365.65H1232.41Z" fill="white"/>
<path d="M1284.53 342.377H1304.35V348.466H1284.53V342.377ZM1285.1 359.447H1307.6V365.65H1277.69V325.819H1306.8V332.021H1285.1V359.447Z" fill="white"/>
<path d="M1351.28 334.923C1353.71 334.923 1355.85 335.398 1357.72 336.346C1359.61 337.294 1361.1 338.755 1362.16 340.727C1363.22 342.662 1363.75 345.165 1363.75 348.238V365.65H1356.63V349.148C1356.63 346.455 1356.04 344.445 1354.87 343.117C1353.69 341.789 1352 341.126 1349.8 341.126C1348.24 341.126 1346.86 341.467 1345.64 342.15C1344.46 342.833 1343.53 343.838 1342.85 345.165C1342.2 346.493 1341.88 348.181 1341.88 350.23V365.65H1334.76V349.148C1334.76 346.455 1334.17 344.445 1333 343.117C1331.82 341.789 1330.13 341.126 1327.93 341.126C1326.37 341.126 1324.98 341.467 1323.77 342.15C1322.59 342.833 1321.66 343.838 1320.98 345.165C1320.33 346.493 1320.01 348.181 1320.01 350.23V365.65H1312.89V335.265H1319.67V343.345L1318.47 340.955C1319.5 338.982 1320.98 337.484 1322.91 336.46C1324.89 335.435 1327.13 334.923 1329.64 334.923C1332.48 334.923 1334.95 335.625 1337.04 337.029C1339.17 338.432 1340.57 340.557 1341.25 343.402L1338.46 342.434C1339.45 340.158 1341.08 338.337 1343.36 336.972C1345.64 335.606 1348.28 334.923 1351.28 334.923Z" fill="white"/>
<path d="M1387.43 366.048C1384.85 366.048 1382.55 365.479 1380.54 364.341C1378.53 363.203 1376.93 361.496 1375.76 359.22C1374.62 356.906 1374.05 353.985 1374.05 350.457C1374.05 346.891 1374.64 343.971 1375.81 341.695C1377.03 339.418 1378.64 337.73 1380.65 336.63C1382.71 335.492 1384.96 334.923 1387.43 334.923C1390.43 334.923 1393.07 335.568 1395.35 336.858C1397.67 338.148 1399.49 339.95 1400.82 342.264C1402.18 344.577 1402.87 347.309 1402.87 350.457C1402.87 353.606 1402.18 356.337 1400.82 358.651C1399.49 360.965 1397.67 362.786 1395.35 364.113C1393.07 365.403 1390.43 366.048 1387.43 366.048ZM1370.57 365.65V323.429H1377.69V342.32L1377.12 350.4L1377.35 358.48V365.65H1370.57ZM1386.64 359.96C1388.34 359.96 1389.86 359.58 1391.19 358.822C1392.56 358.063 1393.64 356.963 1394.44 355.521C1395.24 354.08 1395.63 352.392 1395.63 350.457C1395.63 348.485 1395.24 346.797 1394.44 345.393C1393.64 343.952 1392.56 342.851 1391.19 342.093C1389.86 341.334 1388.34 340.955 1386.64 340.955C1384.93 340.955 1383.39 341.334 1382.02 342.093C1380.65 342.851 1379.57 343.952 1378.77 345.393C1377.98 346.797 1377.58 348.485 1377.58 350.457C1377.58 352.392 1377.98 354.08 1378.77 355.521C1379.57 356.963 1380.65 358.063 1382.02 358.822C1383.39 359.58 1384.93 359.96 1386.64 359.96Z" fill="white"/>
<path d="M1421.64 366.048C1418.26 366.048 1415.3 365.384 1412.75 364.056C1410.25 362.691 1408.29 360.832 1406.89 358.48C1405.52 356.128 1404.84 353.454 1404.84 350.457C1404.84 347.423 1405.5 344.748 1406.83 342.434C1408.2 340.082 1410.06 338.243 1412.41 336.915C1414.8 335.587 1417.52 334.923 1420.56 334.923C1423.52 334.923 1426.16 335.568 1428.47 336.858C1430.79 338.148 1432.61 339.969 1433.94 342.32C1435.27 344.672 1435.94 347.441 1435.94 350.628C1435.94 350.931 1435.92 351.273 1435.88 351.652C1435.88 352.031 1435.86 352.392 1435.82 352.733H1410.47V348.01H1432.06L1429.27 349.49C1429.31 347.745 1428.95 346.209 1428.19 344.881C1427.43 343.553 1426.39 342.51 1425.06 341.751C1423.76 340.993 1422.27 340.613 1420.56 340.613C1418.81 340.613 1417.27 340.993 1415.94 341.751C1414.65 342.51 1413.63 343.572 1412.87 344.938C1412.15 346.266 1411.78 347.84 1411.78 349.661V350.799C1411.78 352.619 1412.2 354.232 1413.04 355.635C1413.87 357.039 1415.05 358.12 1416.57 358.878C1418.09 359.637 1419.83 360.017 1421.81 360.017C1423.52 360.017 1425.06 359.751 1426.42 359.22C1427.79 358.689 1429.01 357.854 1430.07 356.716L1433.88 361.098C1432.52 362.691 1430.79 363.924 1428.7 364.796C1426.65 365.631 1424.3 366.048 1421.64 366.048Z" fill="white"/>
<path d="M1453.37 366.048C1450.44 366.048 1447.81 365.403 1445.45 364.113C1443.13 362.786 1441.31 360.965 1439.98 358.651C1438.65 356.337 1437.99 353.606 1437.99 350.457C1437.99 347.309 1438.65 344.577 1439.98 342.264C1441.31 339.95 1443.13 338.148 1445.45 336.858C1447.81 335.568 1450.44 334.923 1453.37 334.923C1455.91 334.923 1458.19 335.492 1460.2 336.63C1462.22 337.73 1463.81 339.418 1464.99 341.695C1466.16 343.971 1466.75 346.891 1466.75 350.457C1466.75 353.985 1466.18 356.906 1465.04 359.22C1463.91 361.496 1462.33 363.203 1460.32 364.341C1458.3 365.479 1455.99 366.048 1453.37 366.048ZM1454.22 359.96C1455.93 359.96 1457.45 359.58 1458.78 358.822C1460.15 358.063 1461.23 356.963 1462.03 355.521C1462.86 354.08 1463.28 352.392 1463.28 350.457C1463.28 348.485 1462.86 346.797 1462.03 345.393C1461.23 343.952 1460.15 342.851 1458.78 342.093C1457.45 341.334 1455.93 340.955 1454.22 340.955C1452.51 340.955 1450.98 341.334 1449.61 342.093C1448.28 342.851 1447.2 343.952 1446.36 345.393C1445.56 346.797 1445.17 348.485 1445.17 350.457C1445.17 352.392 1445.56 354.08 1446.36 355.521C1447.2 356.963 1448.28 358.063 1449.61 358.822C1450.98 359.58 1452.51 359.96 1454.22 359.96ZM1463.45 365.65V358.48L1463.73 350.4L1463.17 342.32V323.429H1470.23V365.65H1463.45Z" fill="white"/>
<path d="M306.506 675.28C299.508 675.28 292.81 674.299 286.41 672.336C280.01 670.288 274.932 667.685 271.178 664.528L276.938 651.6C280.522 654.416 284.959 656.763 290.25 658.64C295.54 660.517 300.959 661.456 306.506 661.456C311.199 661.456 314.996 660.944 317.898 659.92C320.799 658.896 322.932 657.531 324.298 655.824C325.663 654.032 326.346 652.027 326.346 649.808C326.346 647.077 325.364 644.901 323.402 643.28C321.439 641.573 318.879 640.251 315.722 639.312C312.65 638.288 309.194 637.349 305.354 636.496C301.599 635.643 297.802 634.661 293.962 633.552C290.207 632.357 286.751 630.864 283.594 629.072C280.522 627.195 278.004 624.72 276.042 621.648C274.079 618.576 273.098 614.651 273.098 609.872C273.098 605.008 274.378 600.571 276.938 596.56C279.583 592.464 283.551 589.221 288.842 586.832C294.218 584.357 301.002 583.12 309.194 583.12C314.57 583.12 319.903 583.803 325.194 585.168C330.484 586.533 335.092 588.496 339.018 591.056L333.77 603.984C329.759 601.595 325.62 599.845 321.354 598.736C317.087 597.541 312.991 596.944 309.066 596.944C304.458 596.944 300.703 597.499 297.802 598.608C294.986 599.717 292.895 601.168 291.53 602.96C290.25 604.752 289.61 606.8 289.61 609.104C289.61 611.835 290.548 614.053 292.426 615.76C294.388 617.381 296.906 618.661 299.978 619.6C303.135 620.539 306.634 621.477 310.474 622.416C314.314 623.269 318.111 624.251 321.866 625.36C325.706 626.469 329.162 627.92 332.234 629.712C335.391 631.504 337.908 633.936 339.786 637.008C341.748 640.08 342.73 643.963 342.73 648.656C342.73 653.435 341.407 657.872 338.762 661.968C336.202 665.979 332.234 669.221 326.858 671.696C321.482 674.085 314.698 675.28 306.506 675.28ZM384.702 674.896C377.107 674.896 370.451 673.403 364.734 670.416C359.102 667.344 354.707 663.163 351.55 657.872C348.478 652.581 346.942 646.565 346.942 639.824C346.942 632.997 348.435 626.981 351.422 621.776C354.494 616.485 358.675 612.347 363.966 609.36C369.342 606.373 375.443 604.88 382.27 604.88C388.926 604.88 394.856 606.331 400.062 609.232C405.267 612.133 409.363 616.229 412.35 621.52C415.336 626.811 416.83 633.04 416.83 640.208C416.83 640.891 416.787 641.659 416.702 642.512C416.702 643.365 416.659 644.176 416.574 644.944H359.614V634.32H408.126L401.854 637.648C401.939 633.723 401.128 630.267 399.422 627.28C397.715 624.293 395.368 621.947 392.382 620.24C389.48 618.533 386.11 617.68 382.27 617.68C378.344 617.68 374.888 618.533 371.902 620.24C369 621.947 366.696 624.336 364.99 627.408C363.368 630.395 362.558 633.936 362.558 638.032V640.592C362.558 644.688 363.496 648.315 365.374 651.472C367.251 654.629 369.896 657.061 373.31 658.768C376.723 660.475 380.648 661.328 385.086 661.328C388.926 661.328 392.382 660.731 395.454 659.536C398.526 658.341 401.256 656.464 403.646 653.904L412.222 663.76C409.15 667.344 405.267 670.117 400.574 672.08C395.966 673.957 390.675 674.896 384.702 674.896ZM459.207 674.896C451.612 674.896 444.956 673.403 439.239 670.416C433.607 667.344 429.212 663.163 426.055 657.872C422.983 652.581 421.447 646.565 421.447 639.824C421.447 632.997 422.94 626.981 425.927 621.776C428.999 616.485 433.18 612.347 438.471 609.36C443.847 606.373 449.948 604.88 456.775 604.88C463.431 604.88 469.361 606.331 474.567 609.232C479.772 612.133 483.868 616.229 486.855 621.52C489.841 626.811 491.335 633.04 491.335 640.208C491.335 640.891 491.292 641.659 491.207 642.512C491.207 643.365 491.164 644.176 491.079 644.944H434.119V634.32H482.631L476.359 637.648C476.444 633.723 475.633 630.267 473.927 627.28C472.22 624.293 469.873 621.947 466.887 620.24C463.985 618.533 460.615 617.68 456.775 617.68C452.849 617.68 449.393 618.533 446.407 620.24C443.505 621.947 441.201 624.336 439.495 627.408C437.873 630.395 437.063 633.936 437.063 638.032V640.592C437.063 644.688 438.001 648.315 439.879 651.472C441.756 654.629 444.401 657.061 447.815 658.768C451.228 660.475 455.153 661.328 459.591 661.328C463.431 661.328 466.887 660.731 469.959 659.536C473.031 658.341 475.761 656.464 478.151 653.904L486.727 663.76C483.655 667.344 479.772 670.117 475.079 672.08C470.471 673.957 465.18 674.896 459.207 674.896ZM557.567 674.896C550.057 674.896 544.255 672.976 540.159 669.136C536.063 665.211 534.015 659.451 534.015 651.856V590.544H550.015V651.472C550.015 654.715 550.825 657.232 552.447 659.024C554.153 660.816 556.5 661.712 559.487 661.712C563.071 661.712 566.057 660.773 568.447 658.896L572.927 670.288C571.049 671.824 568.745 672.976 566.015 673.744C563.284 674.512 560.468 674.896 557.567 674.896ZM522.751 618.96V606.16H568.319V618.96H522.751ZM619.753 604.88C625.214 604.88 630.078 605.947 634.345 608.08C638.697 610.213 642.11 613.499 644.585 617.936C647.059 622.288 648.297 627.92 648.297 634.832V674H632.297V636.88C632.297 630.821 630.846 626.299 627.945 623.312C625.129 620.325 621.161 618.832 616.041 618.832C612.286 618.832 608.958 619.6 606.057 621.136C603.155 622.672 600.894 624.976 599.273 628.048C597.737 631.035 596.969 634.832 596.969 639.44V674H580.969V579.024H596.969V624.08L593.513 618.448C595.902 614.096 599.358 610.768 603.881 608.464C608.489 606.075 613.779 604.88 619.753 604.88ZM695.727 674.896C688.132 674.896 681.476 673.403 675.759 670.416C670.127 667.344 665.732 663.163 662.575 657.872C659.503 652.581 657.967 646.565 657.967 639.824C657.967 632.997 659.46 626.981 662.447 621.776C665.519 616.485 669.7 612.347 674.991 609.36C680.367 606.373 686.468 604.88 693.295 604.88C699.951 604.88 705.881 606.331 711.087 609.232C716.292 612.133 720.388 616.229 723.375 621.52C726.361 626.811 727.855 633.04 727.855 640.208C727.855 640.891 727.812 641.659 727.727 642.512C727.727 643.365 727.684 644.176 727.599 644.944H670.639V634.32H719.151L712.879 637.648C712.964 633.723 712.153 630.267 710.447 627.28C708.74 624.293 706.393 621.947 703.407 620.24C700.505 618.533 697.135 617.68 693.295 617.68C689.369 617.68 685.913 618.533 682.927 620.24C680.025 621.947 677.721 624.336 676.015 627.408C674.393 630.395 673.583 633.936 673.583 638.032V640.592C673.583 644.688 674.521 648.315 676.399 651.472C678.276 654.629 680.921 657.061 684.335 658.768C687.748 660.475 691.673 661.328 696.111 661.328C699.951 661.328 703.407 660.731 706.479 659.536C709.551 658.341 712.281 656.464 714.671 653.904L723.247 663.76C720.175 667.344 716.292 670.117 711.599 672.08C706.991 673.957 701.7 674.896 695.727 674.896ZM789.479 674.896C783.761 674.896 778.257 674.171 772.967 672.72C767.761 671.184 763.623 669.349 760.551 667.216L766.695 655.056C769.767 657.019 773.436 658.64 777.703 659.92C781.969 661.2 786.236 661.84 790.503 661.84C795.537 661.84 799.164 661.157 801.383 659.792C803.687 658.427 804.839 656.592 804.839 654.288C804.839 652.411 804.071 651.003 802.535 650.064C800.999 649.04 798.993 648.272 796.519 647.76C794.044 647.248 791.271 646.779 788.199 646.352C785.212 645.925 782.183 645.371 779.111 644.688C776.124 643.92 773.393 642.853 770.919 641.488C768.444 640.037 766.439 638.117 764.903 635.728C763.367 633.339 762.599 630.181 762.599 626.256C762.599 621.904 763.836 618.149 766.311 614.992C768.785 611.749 772.241 609.275 776.679 607.568C781.201 605.776 786.535 604.88 792.679 604.88C797.287 604.88 801.937 605.392 806.631 606.416C811.324 607.44 815.207 608.891 818.279 610.768L812.135 622.928C808.892 620.965 805.607 619.643 802.279 618.96C799.036 618.192 795.793 617.808 792.551 617.808C787.687 617.808 784.06 618.533 781.671 619.984C779.367 621.435 778.215 623.269 778.215 625.488C778.215 627.536 778.983 629.072 780.519 630.096C782.055 631.12 784.06 631.931 786.535 632.528C789.009 633.125 791.74 633.637 794.727 634.064C797.799 634.405 800.828 634.96 803.815 635.728C806.801 636.496 809.532 637.563 812.007 638.928C814.567 640.208 816.615 642.043 818.151 644.432C819.687 646.821 820.455 649.936 820.455 653.776C820.455 658.043 819.175 661.755 816.615 664.912C814.14 668.069 810.599 670.544 805.991 672.336C801.383 674.043 795.879 674.896 789.479 674.896ZM854.841 674.896C847.332 674.896 841.529 672.976 837.433 669.136C833.337 665.211 831.289 659.451 831.289 651.856V590.544H847.289V651.472C847.289 654.715 848.1 657.232 849.721 659.024C851.428 660.816 853.775 661.712 856.761 661.712C860.345 661.712 863.332 660.773 865.721 658.896L870.201 670.288C868.324 671.824 866.02 672.976 863.289 673.744C860.559 674.512 857.743 674.896 854.841 674.896ZM820.025 618.96V606.16H865.593V618.96H820.025ZM920.355 674V660.176L919.459 657.232V633.04C919.459 628.347 918.051 624.72 915.236 622.16C912.42 619.515 908.153 618.192 902.436 618.192C898.595 618.192 894.798 618.789 891.043 619.984C887.374 621.179 884.259 622.843 881.699 624.976L875.427 613.328C879.097 610.512 883.449 608.421 888.483 607.056C893.603 605.605 898.894 604.88 904.355 604.88C914.254 604.88 921.891 607.269 927.268 612.048C932.729 616.741 935.46 624.037 935.46 633.936V674H920.355ZM898.851 674.896C893.731 674.896 889.251 674.043 885.411 672.336C881.571 670.544 878.585 668.112 876.451 665.04C874.403 661.883 873.379 658.341 873.379 654.416C873.379 650.576 874.275 647.12 876.067 644.048C877.945 640.976 880.974 638.544 885.155 636.752C889.337 634.96 894.883 634.064 901.795 634.064H921.636V644.688H902.947C897.486 644.688 893.817 645.584 891.939 647.376C890.062 649.083 889.123 651.216 889.123 653.776C889.123 656.677 890.275 658.981 892.579 660.688C894.883 662.395 898.083 663.248 902.18 663.248C906.105 663.248 909.604 662.352 912.675 660.56C915.833 658.768 918.094 656.123 919.459 652.624L922.147 662.224C920.611 666.235 917.838 669.349 913.827 671.568C909.902 673.787 904.91 674.896 898.851 674.896ZM976.602 674.896C969.092 674.896 963.29 672.976 959.194 669.136C955.098 665.211 953.05 659.451 953.05 651.856V590.544H969.05V651.472C969.05 654.715 969.86 657.232 971.482 659.024C973.188 660.816 975.535 661.712 978.522 661.712C982.106 661.712 985.092 660.773 987.482 658.896L991.962 670.288C990.084 671.824 987.78 672.976 985.05 673.744C982.319 674.512 979.503 674.896 976.602 674.896ZM941.786 618.96V606.16H987.354V618.96H941.786ZM1028.93 674.896C1023.13 674.896 1018.01 673.829 1013.57 671.696C1009.13 669.477 1005.68 666.149 1003.2 661.712C1000.73 657.189 999.492 651.515 999.492 644.688V605.648H1015.49V642.512C1015.49 648.656 1016.86 653.264 1019.59 656.336C1022.4 659.323 1026.37 660.816 1031.49 660.816C1035.25 660.816 1038.49 660.048 1041.22 658.512C1044.04 656.976 1046.21 654.672 1047.75 651.6C1049.37 648.528 1050.18 644.731 1050.18 640.208V605.648H1066.18V674H1050.95V655.568L1053.64 661.2C1051.33 665.637 1047.96 669.051 1043.52 671.44C1039.09 673.744 1034.22 674.896 1028.93 674.896ZM1103.13 674.896C1097.41 674.896 1091.91 674.171 1086.62 672.72C1081.41 671.184 1077.27 669.349 1074.2 667.216L1080.34 655.056C1083.42 657.019 1087.09 658.64 1091.35 659.92C1095.62 661.2 1099.89 661.84 1104.15 661.84C1109.19 661.84 1112.81 661.157 1115.03 659.792C1117.34 658.427 1118.49 656.592 1118.49 654.288C1118.49 652.411 1117.72 651.003 1116.18 650.064C1114.65 649.04 1112.64 648.272 1110.17 647.76C1107.69 647.248 1104.92 646.779 1101.85 646.352C1098.86 645.925 1095.83 645.371 1092.76 644.688C1089.77 643.92 1087.04 642.853 1084.57 641.488C1082.09 640.037 1080.09 638.117 1078.55 635.728C1077.02 633.339 1076.25 630.181 1076.25 626.256C1076.25 621.904 1077.49 618.149 1079.96 614.992C1082.44 611.749 1085.89 609.275 1090.33 607.568C1094.85 605.776 1100.18 604.88 1106.33 604.88C1110.94 604.88 1115.59 605.392 1120.28 606.416C1124.97 607.44 1128.86 608.891 1131.93 610.768L1125.78 622.928C1122.54 620.965 1119.26 619.643 1115.93 618.96C1112.69 618.192 1109.44 617.808 1106.2 617.808C1101.34 617.808 1097.71 618.533 1095.32 619.984C1093.02 621.435 1091.86 623.269 1091.86 625.488C1091.86 627.536 1092.63 629.072 1094.17 630.096C1095.7 631.12 1097.71 631.931 1100.18 632.528C1102.66 633.125 1105.39 633.637 1108.38 634.064C1111.45 634.405 1114.48 634.96 1117.46 635.728C1120.45 636.496 1123.18 637.563 1125.66 638.928C1128.22 640.208 1130.26 642.043 1131.8 644.432C1133.34 646.821 1134.1 649.936 1134.1 653.776C1134.1 658.043 1132.82 661.755 1130.26 664.912C1127.79 668.069 1124.25 670.544 1119.64 672.336C1115.03 674.043 1109.53 674.896 1103.13 674.896ZM1188.12 674L1163.03 605.648H1178.14L1199.64 665.936H1192.47L1215 605.648H1228.44L1250.33 665.936H1243.29L1265.43 605.648H1279.64L1254.43 674H1239.07L1219.1 620.624H1223.83L1203.48 674H1188.12ZM1285.52 674V605.648H1301.52V674H1285.52ZM1293.59 594.384C1290.6 594.384 1288.13 593.445 1286.16 591.568C1284.29 589.691 1283.35 587.429 1283.35 584.784C1283.35 582.053 1284.29 579.792 1286.16 578C1288.13 576.123 1290.6 575.184 1293.59 575.184C1296.57 575.184 1299.01 576.08 1300.88 577.872C1302.85 579.579 1303.83 581.755 1303.83 584.4C1303.83 587.216 1302.89 589.605 1301.01 591.568C1299.13 593.445 1296.66 594.384 1293.59 594.384ZM1343.13 674.896C1335.62 674.896 1329.82 672.976 1325.72 669.136C1321.63 665.211 1319.58 659.451 1319.58 651.856V590.544H1335.58V651.472C1335.58 654.715 1336.39 657.232 1338.01 659.024C1339.72 660.816 1342.06 661.712 1345.05 661.712C1348.64 661.712 1351.62 660.773 1354.01 658.896L1358.49 670.288C1356.61 671.824 1354.31 672.976 1351.58 673.744C1348.85 674.512 1346.03 674.896 1343.13 674.896ZM1308.32 618.96V606.16H1353.88V618.96H1308.32ZM1405.32 604.88C1410.78 604.88 1415.64 605.947 1419.91 608.08C1424.26 610.213 1427.67 613.499 1430.15 617.936C1432.62 622.288 1433.86 627.92 1433.86 634.832V674H1417.86V636.88C1417.86 630.821 1416.41 626.299 1413.51 623.312C1410.69 620.325 1406.73 618.832 1401.61 618.832C1397.85 618.832 1394.52 619.6 1391.62 621.136C1388.72 622.672 1386.46 624.976 1384.84 628.048C1383.3 631.035 1382.53 634.832 1382.53 639.44V674H1366.53V579.024H1382.53V624.08L1379.08 618.448C1381.47 614.096 1384.92 610.768 1389.45 608.464C1394.05 606.075 1399.34 604.88 1405.32 604.88ZM1479.88 674.896C1472.89 674.896 1466.66 673.403 1461.2 670.416C1455.73 667.344 1451.42 663.163 1448.27 657.872C1445.11 652.581 1443.53 646.565 1443.53 639.824C1443.53 632.997 1445.11 626.981 1448.27 621.776C1451.42 616.485 1455.73 612.347 1461.2 609.36C1466.66 606.373 1472.89 604.88 1479.88 604.88C1486.97 604.88 1493.24 606.373 1498.7 609.36C1504.25 612.347 1508.56 616.443 1511.63 621.648C1514.78 626.853 1516.36 632.912 1516.36 639.824C1516.36 646.565 1514.78 652.581 1511.63 657.872C1508.56 663.163 1504.25 667.344 1498.7 670.416C1493.24 673.403 1486.97 674.896 1479.88 674.896ZM1479.88 661.2C1483.81 661.2 1487.31 660.347 1490.38 658.64C1493.45 656.933 1495.84 654.459 1497.55 651.216C1499.34 647.973 1500.24 644.176 1500.24 639.824C1500.24 635.387 1499.34 631.589 1497.55 628.432C1495.84 625.189 1493.45 622.715 1490.38 621.008C1487.31 619.301 1483.85 618.448 1480.01 618.448C1476.09 618.448 1472.59 619.301 1469.52 621.008C1466.53 622.715 1464.14 625.189 1462.35 628.432C1460.56 631.589 1459.66 635.387 1459.66 639.824C1459.66 644.176 1460.56 647.973 1462.35 651.216C1464.14 654.459 1466.53 656.933 1469.52 658.64C1472.59 660.347 1476.04 661.2 1479.88 661.2ZM1555.47 674.896C1549.67 674.896 1544.55 673.829 1540.11 671.696C1535.67 669.477 1532.22 666.149 1529.74 661.712C1527.27 657.189 1526.03 651.515 1526.03 644.688V605.648H1542.03V642.512C1542.03 648.656 1543.4 653.264 1546.13 656.336C1548.94 659.323 1552.91 660.816 1558.03 660.816C1561.79 660.816 1565.03 660.048 1567.76 658.512C1570.58 656.976 1572.75 654.672 1574.29 651.6C1575.91 648.528 1576.72 644.731 1576.72 640.208V605.648H1592.72V674H1577.49V655.568L1580.18 661.2C1577.87 665.637 1574.5 669.051 1570.06 671.44C1565.63 673.744 1560.76 674.896 1555.47 674.896ZM1634.28 674.896C1626.77 674.896 1620.96 672.976 1616.87 669.136C1612.77 665.211 1610.72 659.451 1610.72 651.856V590.544H1626.72V651.472C1626.72 654.715 1627.54 657.232 1629.16 659.024C1630.86 660.816 1633.21 661.712 1636.2 661.712C1639.78 661.712 1642.77 660.773 1645.16 658.896L1649.64 670.288C1647.76 671.824 1645.46 672.976 1642.72 673.744C1639.99 674.512 1637.18 674.896 1634.28 674.896ZM1599.46 618.96V606.16H1645.03V618.96H1599.46ZM260.072 819.896C252.477 819.896 245.821 818.403 240.104 815.416C234.472 812.344 230.077 808.163 226.92 802.872C223.848 797.581 222.312 791.565 222.312 784.824C222.312 777.997 223.805 771.981 226.792 766.776C229.864 761.485 234.045 757.347 239.336 754.36C244.712 751.373 250.813 749.88 257.64 749.88C264.296 749.88 270.226 751.331 275.432 754.232C280.637 757.133 284.733 761.229 287.72 766.52C290.706 771.811 292.2 778.04 292.2 785.208C292.2 785.891 292.157 786.659 292.072 787.512C292.072 788.365 292.029 789.176 291.944 789.944H234.984V779.32H283.496L277.224 782.648C277.309 778.723 276.498 775.267 274.792 772.28C273.085 769.293 270.738 766.947 267.752 765.24C264.85 763.533 261.48 762.68 257.64 762.68C253.714 762.68 250.258 763.533 247.272 765.24C244.37 766.947 242.066 769.336 240.36 772.408C238.738 775.395 237.928 778.936 237.928 783.032V785.592C237.928 789.688 238.866 793.315 240.744 796.472C242.621 799.629 245.266 802.061 248.68 803.768C252.093 805.475 256.018 806.328 260.456 806.328C264.296 806.328 267.752 805.731 270.824 804.536C273.896 803.341 276.626 801.464 279.016 798.904L287.592 808.76C284.52 812.344 280.637 815.117 275.944 817.08C271.336 818.957 266.045 819.896 260.072 819.896ZM319.375 819L290.063 750.648H306.703L331.919 810.936H323.727L349.839 750.648H365.199L335.887 819H319.375ZM400.332 819.896C392.737 819.896 386.081 818.403 380.364 815.416C374.732 812.344 370.337 808.163 367.18 802.872C364.108 797.581 362.572 791.565 362.572 784.824C362.572 777.997 364.065 771.981 367.052 766.776C370.124 761.485 374.305 757.347 379.596 754.36C384.972 751.373 391.073 749.88 397.9 749.88C404.556 749.88 410.486 751.331 415.692 754.232C420.897 757.133 424.993 761.229 427.98 766.52C430.966 771.811 432.46 778.04 432.46 785.208C432.46 785.891 432.417 786.659 432.332 787.512C432.332 788.365 432.289 789.176 432.204 789.944H375.244V779.32H423.756L417.484 782.648C417.569 778.723 416.758 775.267 415.052 772.28C413.345 769.293 410.998 766.947 408.012 765.24C405.11 763.533 401.74 762.68 397.9 762.68C393.974 762.68 390.518 763.533 387.532 765.24C384.63 766.947 382.326 769.336 380.62 772.408C378.998 775.395 378.188 778.936 378.188 783.032V785.592C378.188 789.688 379.126 793.315 381.004 796.472C382.881 799.629 385.526 802.061 388.94 803.768C392.353 805.475 396.278 806.328 400.716 806.328C404.556 806.328 408.012 805.731 411.084 804.536C414.156 803.341 416.886 801.464 419.276 798.904L427.852 808.76C424.78 812.344 420.897 815.117 416.204 817.08C411.596 818.957 406.305 819.896 400.332 819.896ZM481.493 749.88C486.954 749.88 491.818 750.947 496.085 753.08C500.437 755.213 503.85 758.499 506.325 762.936C508.799 767.288 510.037 772.92 510.037 779.832V819H494.037V781.88C494.037 775.821 492.586 771.299 489.685 768.312C486.869 765.325 482.901 763.832 477.781 763.832C474.026 763.832 470.698 764.6 467.797 766.136C464.895 767.672 462.634 769.976 461.013 773.048C459.477 776.035 458.709 779.832 458.709 784.44V819H442.709V750.648H457.941V769.08L455.253 763.448C457.642 759.096 461.098 755.768 465.621 753.464C470.229 751.075 475.519 749.88 481.493 749.88ZM586.189 819.896C579.191 819.896 572.962 818.403 567.501 815.416C562.039 812.344 557.73 808.163 554.573 802.872C551.415 797.581 549.837 791.565 549.837 784.824C549.837 777.997 551.415 771.981 554.573 766.776C557.73 761.485 562.039 757.347 567.501 754.36C572.962 751.373 579.191 749.88 586.189 749.88C593.271 749.88 599.543 751.373 605.005 754.36C610.551 757.347 614.861 761.443 617.933 766.648C621.09 771.853 622.669 777.912 622.669 784.824C622.669 791.565 621.09 797.581 617.933 802.872C614.861 808.163 610.551 812.344 605.005 815.416C599.543 818.403 593.271 819.896 586.189 819.896ZM586.189 806.2C590.114 806.2 593.613 805.347 596.685 803.64C599.757 801.933 602.146 799.459 603.853 796.216C605.645 792.973 606.541 789.176 606.541 784.824C606.541 780.387 605.645 776.589 603.853 773.432C602.146 770.189 599.757 767.715 596.685 766.008C593.613 764.301 590.157 763.448 586.317 763.448C582.391 763.448 578.893 764.301 575.821 766.008C572.834 767.715 570.445 770.189 568.653 773.432C566.861 776.589 565.965 780.387 565.965 784.824C565.965 789.176 566.861 792.973 568.653 796.216C570.445 799.459 572.834 801.933 575.821 803.64C578.893 805.347 582.349 806.2 586.189 806.2ZM670.737 819.896C665.19 819.896 660.113 818.616 655.505 816.056C650.982 813.496 647.355 809.656 644.625 804.536C641.979 799.331 640.657 792.76 640.657 784.824C640.657 776.803 641.937 770.232 644.497 765.112C647.142 759.992 650.726 756.195 655.249 753.72C659.771 751.16 664.934 749.88 670.737 749.88C677.478 749.88 683.409 751.331 688.529 754.232C693.734 757.133 697.83 761.187 700.817 766.392C703.889 771.597 705.425 777.741 705.425 784.824C705.425 791.907 703.889 798.093 700.817 803.384C697.83 808.589 693.734 812.643 688.529 815.544C683.409 818.445 677.478 819.896 670.737 819.896ZM632.849 843.832V750.648H648.081V766.776L647.569 784.952L648.849 803.128V843.832H632.849ZM668.945 806.2C672.785 806.2 676.198 805.347 679.185 803.64C682.257 801.933 684.689 799.459 686.481 796.216C688.273 792.973 689.169 789.176 689.169 784.824C689.169 780.387 688.273 776.589 686.481 773.432C684.689 770.189 682.257 767.715 679.185 766.008C676.198 764.301 672.785 763.448 668.945 763.448C665.105 763.448 661.649 764.301 658.577 766.008C655.505 767.715 653.073 770.189 651.281 773.432C649.489 776.589 648.593 780.387 648.593 784.824C648.593 789.176 649.489 792.973 651.281 796.216C653.073 799.459 655.505 801.933 658.577 803.64C661.649 805.347 665.105 806.2 668.945 806.2ZM747.607 819.896C740.012 819.896 733.356 818.403 727.639 815.416C722.007 812.344 717.612 808.163 714.455 802.872C711.383 797.581 709.847 791.565 709.847 784.824C709.847 777.997 711.34 771.981 714.327 766.776C717.399 761.485 721.58 757.347 726.871 754.36C732.247 751.373 738.348 749.88 745.175 749.88C751.831 749.88 757.761 751.331 762.967 754.232C768.172 757.133 772.268 761.229 775.255 766.52C778.241 771.811 779.735 778.04 779.735 785.208C779.735 785.891 779.692 786.659 779.607 787.512C779.607 788.365 779.564 789.176 779.479 789.944H722.519V779.32H771.031L764.759 782.648C764.844 778.723 764.033 775.267 762.327 772.28C760.62 769.293 758.273 766.947 755.287 765.24C752.385 763.533 749.015 762.68 745.175 762.68C741.249 762.68 737.793 763.533 734.807 765.24C731.905 766.947 729.601 769.336 727.895 772.408C726.273 775.395 725.463 778.936 725.463 783.032V785.592C725.463 789.688 726.401 793.315 728.279 796.472C730.156 799.629 732.801 802.061 736.215 803.768C739.628 805.475 743.553 806.328 747.991 806.328C751.831 806.328 755.287 805.731 758.359 804.536C761.431 803.341 764.161 801.464 766.551 798.904L775.127 808.76C772.055 812.344 768.172 815.117 763.479 817.08C758.871 818.957 753.58 819.896 747.607 819.896ZM828.767 749.88C834.229 749.88 839.093 750.947 843.359 753.08C847.711 755.213 851.125 758.499 853.599 762.936C856.074 767.288 857.311 772.92 857.311 779.832V819H841.311V781.88C841.311 775.821 839.861 771.299 836.959 768.312C834.143 765.325 830.175 763.832 825.055 763.832C821.301 763.832 817.973 764.6 815.071 766.136C812.17 767.672 809.909 769.976 808.287 773.048C806.751 776.035 805.983 779.832 805.983 784.44V819H789.983V750.648H805.215V769.08L802.527 763.448C804.917 759.096 808.373 755.768 812.895 753.464C817.503 751.075 822.794 749.88 828.767 749.88ZM872.488 819V750.648H888.488V819H872.488ZM880.552 739.384C877.566 739.384 875.091 738.445 873.128 736.568C871.251 734.691 870.312 732.429 870.312 729.784C870.312 727.053 871.251 724.792 873.128 723C875.091 721.123 877.566 720.184 880.552 720.184C883.539 720.184 885.971 721.08 887.848 722.872C889.811 724.579 890.792 726.755 890.792 729.4C890.792 732.216 889.854 734.605 887.976 736.568C886.099 738.445 883.624 739.384 880.552 739.384ZM943.153 749.88C948.614 749.88 953.478 750.947 957.744 753.08C962.096 755.213 965.51 758.499 967.985 762.936C970.459 767.288 971.697 772.92 971.697 779.832V819H955.696V781.88C955.696 775.821 954.246 771.299 951.345 768.312C948.528 765.325 944.56 763.832 939.44 763.832C935.686 763.832 932.358 764.6 929.457 766.136C926.555 767.672 924.294 769.976 922.672 773.048C921.136 776.035 920.368 779.832 920.368 784.44V819H904.368V750.648H919.6V769.08L916.912 763.448C919.302 759.096 922.758 755.768 927.28 753.464C931.889 751.075 937.179 749.88 943.153 749.88ZM1017.97 844.728C1011.66 844.728 1005.47 843.875 999.415 842.168C993.441 840.547 988.535 838.157 984.695 835L991.863 822.968C994.849 825.443 998.604 827.405 1003.13 828.856C1007.73 830.392 1012.39 831.16 1017.08 831.16C1024.59 831.16 1030.09 829.411 1033.59 825.912C1037.09 822.499 1038.84 817.336 1038.84 810.424V798.264L1040.12 782.776L1039.61 767.288V750.648H1054.84V808.632C1054.84 821.005 1051.68 830.093 1045.37 835.896C1039.05 841.784 1029.92 844.728 1017.97 844.728ZM1015.93 815.928C1009.44 815.928 1003.55 814.563 998.263 811.832C993.057 809.016 988.919 805.133 985.847 800.184C982.86 795.235 981.367 789.432 981.367 782.776C981.367 776.205 982.86 770.445 985.847 765.496C988.919 760.547 993.057 756.707 998.263 753.976C1003.55 751.245 1009.44 749.88 1015.93 749.88C1021.73 749.88 1026.93 751.032 1031.54 753.336C1036.15 755.64 1039.82 759.224 1042.55 764.088C1045.37 768.952 1046.77 775.181 1046.77 782.776C1046.77 790.371 1045.37 796.643 1042.55 801.592C1039.82 806.456 1036.15 810.083 1031.54 812.472C1026.93 814.776 1021.73 815.928 1015.93 815.928ZM1018.36 802.36C1022.37 802.36 1025.95 801.549 1029.11 799.928C1032.27 798.221 1034.7 795.917 1036.41 793.016C1038.2 790.029 1039.09 786.616 1039.09 782.776C1039.09 778.936 1038.2 775.565 1036.41 772.664C1034.7 769.677 1032.27 767.416 1029.11 765.88C1025.95 764.259 1022.37 763.448 1018.36 763.448C1014.35 763.448 1010.72 764.259 1007.48 765.88C1004.32 767.416 1001.85 769.677 1000.05 772.664C998.348 775.565 997.495 778.936 997.495 782.776C997.495 786.616 998.348 790.029 1000.05 793.016C1001.85 795.917 1004.32 798.221 1007.48 799.928C1010.72 801.549 1014.35 802.36 1018.36 802.36ZM1143.12 819V805.176L1142.22 802.232V778.04C1142.22 773.347 1140.82 769.72 1138 767.16C1135.18 764.515 1130.92 763.192 1125.2 763.192C1121.36 763.192 1117.56 763.789 1113.81 764.984C1110.14 766.179 1107.02 767.843 1104.46 769.976L1098.19 758.328C1101.86 755.512 1106.21 753.421 1111.25 752.056C1116.37 750.605 1121.66 749.88 1127.12 749.88C1137.02 749.88 1144.66 752.269 1150.03 757.048C1155.49 761.741 1158.22 769.037 1158.22 778.936V819H1143.12ZM1121.62 819.896C1116.5 819.896 1112.02 819.043 1108.18 817.336C1104.34 815.544 1101.35 813.112 1099.22 810.04C1097.17 806.883 1096.14 803.341 1096.14 799.416C1096.14 795.576 1097.04 792.12 1098.83 789.048C1100.71 785.976 1103.74 783.544 1107.92 781.752C1112.1 779.96 1117.65 779.064 1124.56 779.064H1144.4V789.688H1125.71C1120.25 789.688 1116.58 790.584 1114.7 792.376C1112.83 794.083 1111.89 796.216 1111.89 798.776C1111.89 801.677 1113.04 803.981 1115.34 805.688C1117.65 807.395 1120.85 808.248 1124.94 808.248C1128.87 808.248 1132.37 807.352 1135.44 805.56C1138.6 803.768 1140.86 801.123 1142.22 797.624L1144.91 807.224C1143.38 811.235 1140.6 814.349 1136.59 816.568C1132.67 818.787 1127.68 819.896 1121.62 819.896ZM1242.68 749.88C1248.14 749.88 1253 750.947 1257.27 753.08C1261.62 755.213 1265.03 758.499 1267.51 762.936C1269.98 767.288 1271.22 772.92 1271.22 779.832V819H1255.22V781.88C1255.22 775.821 1253.77 771.299 1250.87 768.312C1248.05 765.325 1244.09 763.832 1238.97 763.832C1235.21 763.832 1231.88 764.6 1228.98 766.136C1226.08 767.672 1223.82 769.976 1222.2 773.048C1220.66 776.035 1219.89 779.832 1219.89 784.44V819H1203.89V750.648H1219.13V769.08L1216.44 763.448C1218.83 759.096 1222.28 755.768 1226.81 753.464C1231.41 751.075 1236.7 749.88 1242.68 749.88ZM1318.65 819.896C1311.06 819.896 1304.4 818.403 1298.68 815.416C1293.05 812.344 1288.66 808.163 1285.5 802.872C1282.43 797.581 1280.89 791.565 1280.89 784.824C1280.89 777.997 1282.38 771.981 1285.37 766.776C1288.44 761.485 1292.62 757.347 1297.92 754.36C1303.29 751.373 1309.39 749.88 1316.22 749.88C1322.88 749.88 1328.81 751.331 1334.01 754.232C1339.22 757.133 1343.31 761.229 1346.3 766.52C1349.29 771.811 1350.78 778.04 1350.78 785.208C1350.78 785.891 1350.74 786.659 1350.65 787.512C1350.65 788.365 1350.61 789.176 1350.52 789.944H1293.56V779.32H1342.08L1335.8 782.648C1335.89 778.723 1335.08 775.267 1333.37 772.28C1331.66 769.293 1329.32 766.947 1326.33 765.24C1323.43 763.533 1320.06 762.68 1316.22 762.68C1312.29 762.68 1308.84 763.533 1305.85 765.24C1302.95 766.947 1300.65 769.336 1298.94 772.408C1297.32 775.395 1296.51 778.936 1296.51 783.032V785.592C1296.51 789.688 1297.45 793.315 1299.32 796.472C1301.2 799.629 1303.85 802.061 1307.26 803.768C1310.67 805.475 1314.6 806.328 1319.04 806.328C1322.88 806.328 1326.33 805.731 1329.4 804.536C1332.48 803.341 1335.21 801.464 1337.6 798.904L1346.17 808.76C1343.1 812.344 1339.22 815.117 1334.52 817.08C1329.92 818.957 1324.62 819.896 1318.65 819.896ZM1374.88 819L1349.79 750.648H1364.9L1386.4 810.936H1379.23L1401.76 750.648H1415.2L1437.09 810.936H1430.05L1452.19 750.648H1466.4L1441.19 819H1425.83L1405.86 765.624H1410.59L1390.24 819H1374.88ZM1528.27 819.896C1520.76 819.896 1514.95 817.976 1510.86 814.136C1506.76 810.211 1504.71 804.451 1504.71 796.856V735.544H1520.71V796.472C1520.71 799.715 1521.53 802.232 1523.15 804.024C1524.85 805.816 1527.2 806.712 1530.19 806.712C1533.77 806.712 1536.76 805.773 1539.15 803.896L1543.63 815.288C1541.75 816.824 1539.45 817.976 1536.71 818.744C1533.98 819.512 1531.17 819.896 1528.27 819.896ZM1493.45 763.96V751.16H1539.02V763.96H1493.45ZM1593.78 819V805.176L1592.88 802.232V778.04C1592.88 773.347 1591.48 769.72 1588.66 767.16C1585.84 764.515 1581.58 763.192 1575.86 763.192C1572.02 763.192 1568.22 763.789 1564.47 764.984C1560.8 766.179 1557.68 767.843 1555.12 769.976L1548.85 758.328C1552.52 755.512 1556.87 753.421 1561.91 752.056C1567.03 750.605 1572.32 749.88 1577.78 749.88C1587.68 749.88 1595.32 752.269 1600.69 757.048C1606.15 761.741 1608.88 769.037 1608.88 778.936V819H1593.78ZM1572.28 819.896C1567.16 819.896 1562.68 819.043 1558.84 817.336C1555 815.544 1552.01 813.112 1549.88 810.04C1547.83 806.883 1546.8 803.341 1546.8 799.416C1546.8 795.576 1547.7 792.12 1549.49 789.048C1551.37 785.976 1554.4 783.544 1558.58 781.752C1562.76 779.96 1568.31 779.064 1575.22 779.064H1595.06V789.688H1576.37C1570.91 789.688 1567.24 790.584 1565.36 792.376C1563.49 794.083 1562.55 796.216 1562.55 798.776C1562.55 801.677 1563.7 803.981 1566 805.688C1568.31 807.395 1571.51 808.248 1575.6 808.248C1579.53 808.248 1583.03 807.352 1586.1 805.56C1589.26 803.768 1591.52 801.123 1592.88 797.624L1595.57 807.224C1594.04 811.235 1591.26 814.349 1587.25 816.568C1583.33 818.787 1578.34 819.896 1572.28 819.896ZM1662.19 819.896C1656.38 819.896 1651.22 818.616 1646.7 816.056C1642.18 813.496 1638.59 809.656 1635.95 804.536C1633.39 799.331 1632.11 792.76 1632.11 784.824C1632.11 776.803 1633.43 770.232 1636.07 765.112C1638.81 759.992 1642.43 756.195 1646.95 753.72C1651.56 751.16 1656.64 749.88 1662.19 749.88C1668.93 749.88 1674.86 751.331 1679.98 754.232C1685.18 757.133 1689.28 761.187 1692.27 766.392C1695.34 771.597 1696.87 777.741 1696.87 784.824C1696.87 791.907 1695.34 798.051 1692.27 803.256C1689.28 808.461 1685.18 812.557 1679.98 815.544C1674.86 818.445 1668.93 819.896 1662.19 819.896ZM1624.3 819V724.024H1640.3V766.52L1639.02 784.696L1639.53 802.872V819H1624.3ZM1660.39 806.2C1664.23 806.2 1667.65 805.347 1670.63 803.64C1673.71 801.933 1676.14 799.459 1677.93 796.216C1679.72 792.973 1680.62 789.176 1680.62 784.824C1680.62 780.387 1679.72 776.589 1677.93 773.432C1676.14 770.189 1673.71 767.715 1670.63 766.008C1667.65 764.301 1664.23 763.448 1660.39 763.448C1656.55 763.448 1653.1 764.301 1650.03 766.008C1646.95 767.715 1644.52 770.189 1642.73 773.432C1640.94 776.589 1640.04 780.387 1640.04 784.824C1640.04 789.176 1640.94 792.973 1642.73 796.216C1644.52 799.459 1646.95 801.933 1650.03 803.64C1653.1 805.347 1656.55 806.2 1660.39 806.2Z" fill="black"/>
<defs>
<filter id="filter0_d_1186_43" x="411.071" y="332.35" width="60.3335" height="60.3333" filterUnits="userSpaceOnUse" color-interpolation-filters="sRGB">
<feFlood flood-opacity="0" result="BackgroundImageFix"/>
<feColorMatrix in="SourceAlpha" type="matrix" values="0 0 0 0 0 0 0 0 0 0 0 0 0 0 0 0 0 0 127 0" result="hardAlpha"/>
<feOffset dy="4"/>
<feGaussianBlur stdDeviation="2"/>
<feColorMatrix type="matrix" values="0 0 0 0 0 0 0 0 0 0 0 0 0 0 0 0 0 0 0.25 0"/>
<feBlend mode="normal" in2="BackgroundImageFix" result="effect1_dropShadow_1186_43"/>
<feBlend mode="normal" in="SourceGraphic" in2="effect1_dropShadow_1186_43" result="shape"/>
</filter>
</defs>
</svg>
